<?xml version="1.0" standalone="no"?>
<!DOCTYPE svg PUBLIC "-//W3C//DTD SVG 1.1//EN" "http://www.w3.org/Graphics/SVG/1.1/DTD/svg11.dtd" >
<svg xmlns="http://www.w3.org/2000/svg">
<metadata>Generated by IcoMoon</metadata>
<defs>
<font id="chalk" horiz-adv-x="1024">
<font-face units-per-em="1024" ascent="960" descent="-64" />
<missing-glyph horiz-adv-x="1024" />
<glyph unicode="&#x20;" horiz-adv-x="512" d="" />
<glyph unicode="&#xe900;" glyph-name="add" horiz-adv-x="1707" d="M1655.467 533.333h-290.133v290.133c0 51.2-34.133 51.2-85.333 51.2s-85.333 0-85.333-51.2v-290.133h-290.133c-51.2 0-51.2-34.133-51.2-85.333s0-85.333 51.2-85.333h290.133v-290.133c0-51.2 34.133-51.2 85.333-51.2s85.333 0 85.333 51.2v290.133h290.133c51.2 0 51.2 34.133 51.2 85.333s0 85.333-51.2 85.333v0zM631.467 533.333h-580.267c-51.2 0-51.2-34.133-51.2-85.333s0-85.333 51.2-85.333h580.267c51.2 0 51.2 34.133 51.2 85.333s0 85.333-51.2 85.333v0zM631.467 106.667h-580.267c-51.2 0-51.2-34.133-51.2-85.333s0-85.333 51.2-85.333h580.267c51.2 0 51.2 34.133 51.2 85.333s0 85.333-51.2 85.333v0zM631.467 960h-580.267c-51.2 0-51.2-34.133-51.2-85.333s0-85.333 51.2-85.333h580.267c51.2 0 51.2 34.133 51.2 85.333s0 85.333-51.2 85.333v0z" />
<glyph unicode="&#xe901;" glyph-name="leftArrow" horiz-adv-x="614" d="M63.090 870.002c-15.246 15.474-15.246 40.334 0 55.694s39.879 15.417 55.125 0l445.44-449.877c15.246-15.36 15.246-40.22 0-55.694l-445.44-449.877c-15.246-15.36-39.879-15.36-55.125 0-15.246 15.417-15.246 40.334 0 55.694l406.244 422.059-406.244 422.002z" />
<glyph unicode="&#xe902;" glyph-name="close" d="M508.697 960c-280.934 0-508.697-227.763-508.697-508.697s227.763-508.697 508.697-508.697c280.934 0 508.697 227.763 508.697 508.697s-227.763 508.697-508.697 508.697v0zM798.714 265.932l-104.707-104.707-185.311 185.372-185.372-185.311-104.707 104.707 185.432 185.311-185.372 185.372 104.707 104.646 185.311-185.311 185.372 185.372 104.707-104.707-185.432-185.372 185.372-185.372z" />
<glyph unicode="&#xe903;" glyph-name="remove" d="M34.133 448c0-263.908 213.959-477.867 477.867-477.867s477.867 213.959 477.867 477.867c0 263.908-213.959 477.867-477.867 477.867s-477.867-213.959-477.867-477.867zM796.444 391.111h-568.889v113.778h568.889v-113.778z" />
<glyph unicode="&#xe904;" glyph-name="code" d="M510.355-60.71c-281.861 0-510.355 228.494-510.355 510.355s228.494 510.355 510.355 510.355c281.861 0 510.355-228.494 510.355-510.355s-228.494-510.355-510.355-510.355zM353.504 279.725c9.737 0 19.473 4.001 26.448 11.896 12.994 14.623 11.684 36.999-2.939 49.993l-119.6 106.288 129.549 115.175c14.623 12.994 15.933 35.37 2.939 49.993s-35.37 15.862-49.957 2.939l-189.102-168.106 179.153-159.255c6.727-5.984 15.154-8.922 23.509-8.922zM670.208 279.796l189.102 168.106-179.153 159.255c-14.623 12.994-36.999 11.684-49.957-2.939-12.994-14.623-11.684-36.999 2.939-49.993l119.6-106.323-129.549-115.139c-14.623-12.994-15.933-35.37-2.939-49.993 6.975-7.895 16.711-11.896 26.448-11.896 8.356 0 16.782 2.939 23.509 8.922v0zM504.58 229.626l70.811 424.868c3.222 19.296-9.807 37.53-29.103 40.752-19.367 3.257-37.565-9.807-40.717-29.103l-70.811-424.868c-3.222-19.296 9.807-37.53 29.103-40.752 1.983-0.319 3.895-0.46 5.842-0.46 16.995 0 32.007 12.286 34.875 29.564v0z" />
<glyph unicode="&#xe905;" glyph-name="copy" d="M0 824.021c0 75.099 60.989 135.979 135.979 135.979h752.041c75.099 0 135.979-60.989 135.979-135.979v-752.041c0-75.099-60.989-135.979-135.979-135.979h-752.041c-75.099 0-135.979 60.989-135.979 135.979v752.041zM526.13 794.839h-232.775c-16.091 0-29.097-14.647-29.097-32.768v-393.216c0-18.088 13.006-32.768 29.097-32.768h145.485v-65.536h58.194v65.536h-58.165v65.536h58.165v65.536h-58.194v-65.536h-116.388v327.68h174.582v-131.072h58.194v163.84c0 18.088-13.006 32.768-29.097 32.768zM438.84 565.463v-32.768h58.194v65.536h-29.097c-16.091 0-29.097-14.647-29.097-32.768v0zM555.227 139.479h58.194v65.536h-58.194v-65.536zM555.227 532.695h58.194v65.536h-58.194v-65.536zM438.84 172.247c0-18.088 13.006-32.768 29.097-32.768h29.097v65.536h-58.194v-32.768zM700.712 598.231h-29.097v-65.536h58.194v32.768c0 18.088-13.006 32.768-29.097 32.768v0zM671.615 139.479h29.097c16.091 0 29.097 14.68 29.097 32.768v32.768h-58.194v-65.536zM671.615 401.623h58.194v65.536h-58.194v-65.536zM671.615 270.551h58.194v65.536h-58.194v-65.536z" />
<glyph unicode="&#xe906;" glyph-name="rightArrow" horiz-adv-x="614" d="M562.688 25.998c15.246-15.474 15.246-40.334 0-55.694s-39.879-15.417-55.125 0l-445.44 449.877c-15.246 15.36-15.246 40.22 0 55.694l445.44 449.877c15.246 15.36 39.879 15.36 55.125 0 15.246-15.417 15.246-40.334 0-55.694l-406.244-422.059 406.244-422.002z" />
<glyph unicode="&#xe907;" glyph-name="doc" d="M512-44.014c-271.732 0-492.014 220.282-492.014 492.014s220.282 492.014 492.014 492.014c271.732 0 492.014-220.282 492.014-492.014s-220.282-492.014-492.014-492.014zM814.188 517.516l-230.894 61.911-40.416 150.776c-3.381 12.593-16.905 19.913-30.18 16.408l-281.514-75.434c-13.275-3.536-21.278-16.687-17.897-29.28l100.186-373.791c3.381-12.593 16.873-19.944 30.118-16.346l112.066 29.994-15.261-57.010c-3.381-12.593 4.622-25.744 17.897-29.249l251.551-67.432c13.275-3.567 26.737 3.753 30.149 16.408l92.122 343.797c3.35 12.593-4.653 25.744-17.928 29.249zM263.163 634.886l242.867 65.013 89.889-335.547-242.867-65.013-89.889 335.547zM698.803 174.835l-211.353 57.785 16.625 62.097 120.999 32.475c13.275 3.505 21.34 16.656 17.928 29.249l-46.774 174.535 184.461-50.589-81.886-305.553z" />
<glyph unicode="&#xe908;" glyph-name="download" horiz-adv-x="1161" d="M853.318 618.667h-170.667v341.333h-227.556v-341.333h-170.667l284.444-284.444 284.444 284.444zM1100.102 247.068c-11.947 12.743-91.648 98.020-114.404 120.263-15.076 14.734-36.636 23.78-59.278 23.78h-99.954l174.308-170.325h-201.614c-5.803 0-11.036-2.958-13.653-7.566l-46.421-106.553h-340.423l-46.421 106.553c-2.617 4.608-7.908 7.566-13.653 7.566h-201.614l174.251 170.325h-99.897c-22.585 0-44.146-9.045-59.278-23.78-22.756-22.3-102.457-107.577-114.404-120.263-27.819-29.639-43.122-53.248-35.84-82.432l31.915-174.876c7.282-29.241 39.31-53.248 71.225-53.248h927.972c31.915 0 63.943 24.007 71.225 53.248l31.915 174.876c7.168 29.184-8.078 52.793-35.954 82.432v0z" />
<glyph unicode="&#xe909;" glyph-name="edit" d="M942.137 878.137c-82.034 82.091-143.644 69.803-143.644 69.803l-729.657-729.6-57.458-270.905 270.962 57.458 729.657 729.486c-0.057 0 12.288 61.611-69.86 143.758v0zM266.24 37.433l-92.388-19.911c-8.875 16.668-19.627 33.337-39.253 53.020-19.684 19.684-36.352 30.322-53.020 39.31l19.911 92.331 26.738 26.681c0 0 50.233-1.024 107.008-57.799 56.718-56.661 57.799-107.008 57.799-107.008l-26.795-26.624z" />
<glyph unicode="&#xe90a;" glyph-name="github" horiz-adv-x="1092" d="M526.753 471.091h-1.644c-65.248 0-122.717 15.514-156.739-13.722-20.325-17.51-28.871-38.605-28.871-61.286 0-94.822 81.245-106.496 185.665-106.496h1.589c104.365 0 185.665 11.725 185.665 106.496 0 22.682-8.546 43.827-28.871 61.286-34.076 29.235-91.545 13.722-156.793 13.722v0zM437.893 341.504c-19.887 0-35.939 20.89-35.939 46.592s16.052 46.49 35.939 46.49c19.887 0 35.993-20.787 35.993-46.49 0.055-25.702-16.052-46.592-35.993-46.592v0zM613.915 341.504c-19.887 0-35.993 20.89-35.993 46.592s16.107 46.49 35.993 46.49c19.832 0 35.939-20.787 35.939-46.49 0.055-25.702-16.052-46.592-35.939-46.592v0zM525.932 960c-290.468 0-525.932-220.058-525.932-491.52s235.464-491.52 525.932-491.52c290.468 0 525.932 220.058 525.932 491.52s-235.464 491.52-525.932 491.52v0zM573.923 266.803c-9.423 0-28.159 0-47.991-0.102-19.832 0.102-38.568 0.102-47.991 0.102-41.636 0-206.647 3.021-206.647 188.877 0 42.701 15.668 73.984 41.362 100.096-4.054 9.421-4.273 63.078 17.531 114.483 0 0 50.183-5.12 126.059-53.811 15.833 4.147 42.787 6.246 69.686 6.246s53.798-2.099 69.741-6.195c75.877 48.691 126.059 53.811 126.059 53.811 21.804-51.405 21.64-105.114 17.531-114.483 25.694-26.112 41.362-57.395 41.362-100.096-0.055-185.958-165.066-188.928-206.702-188.928v0z" />
<glyph unicode="&#xe90b;" glyph-name="heart" horiz-adv-x="1161" d="M625.965 877.325l-72.975-74.878-73.040 74.878c-107.502 110.233-281.743 110.233-389.245 0-120.94-124.102-120.94-324.806 0-448.835l462.284-474.202 462.284 474.202c120.875 124.030 120.875 324.806 0 448.835-107.502 110.233-281.807 110.233-389.309 0z" />
<glyph unicode="&#xe90c;" glyph-name="home" horiz-adv-x="1170" d="M1118.975 360.72h-100.2v-359.568c0-26.668-11.626-59.928-59.928-59.928h-239.712v359.568h-239.712v-359.568h-239.712c-48.302 0-59.928 33.26-59.928 59.928v359.568h-100.2c-35.837 0-28.166 19.417-3.596 44.826l480.862 481.341c11.686 12.105 27.028 18.098 42.429 18.698 15.401-0.599 30.743-6.532 42.429-18.698l480.802-481.282c24.63-25.469 32.301-44.886-3.536-44.886v0z" />
<glyph unicode="&#xe90d;" glyph-name="image" d="M512-44.014c-271.732 0-492.014 220.282-492.014 492.014s220.282 492.014 492.014 492.014c271.732 0 492.014-220.282 492.014-492.014s-220.282-492.014-492.014-492.014zM785.067 686.933h-546.133c-18.876 0-34.133-15.258-34.133-34.133v-409.6c0-18.842 15.258-34.133 34.133-34.133h546.133c18.876 0 34.133 15.292 34.133 34.133v409.6c0 18.842-15.258 34.133-34.133 34.133zM622.933 567.467c23.552 0 42.667-19.115 42.667-42.667s-19.115-42.667-42.667-42.667c-23.552 0-42.667 19.115-42.667 42.667s19.115 42.667 42.667 42.667v0zM307.2 311.467l113.118 260.062 128.649-208.282 110.285 54.784 57.549-106.564h-409.6z" />
<glyph unicode="&#xe90e;" glyph-name="link" horiz-adv-x="1161" d="M454.683 274.294v0c15.639 13.579 40.845 13.508 56.404-0.212 15.518-13.72 15.438-35.892-0.201-49.506l-32.604-28.466c-29.549-25.849-68.424-38.756-107.3-38.756s-77.711 12.942-107.3 38.756c-28.704 25.071-44.544 58.417-44.544 93.991 0 35.503 15.799 68.92 44.544 93.991l119.802 104.529c74.495 65.030 160.045 74.366 217.856 23.869 15.639-13.614 15.719-35.821 0.241-49.577-15.558-13.756-40.765-13.826-56.404-0.177-34.051 29.704-80.766-2.192-105.571-23.869l-119.802-104.494c-13.468-11.882-20.945-27.547-20.945-44.273s7.437-32.462 20.945-44.273c28.222-24.576 74.133-24.576 102.315 0l32.564 28.466zM817.789 680.387v0c28.704-25.107 44.584-58.488 44.584-94.027 0-35.503-15.88-68.885-44.504-93.991l-127.843-111.495c-39.519-34.478-81.048-51.876-120.325-51.876-32.081 0-62.715 11.599-89.57 35.008-15.639 13.579-15.719 35.786-0.201 49.542 15.478 13.72 40.685 13.826 56.323 0.177 11.699-10.22 39.117-34.089 97.571 16.868l127.843 111.531c13.508 11.811 20.986 27.511 20.986 44.237s-7.478 32.427-20.986 44.273c-25.528 22.207-64.565 32.992-94.314 6.966l-40.604-35.397c-15.639-13.65-40.845-13.579-56.363 0.177-15.518 13.72-15.397 35.892 0.241 49.542l40.564 35.432c57.489 50.214 144.406 47.279 206.599-6.966zM547.845-64c302.567 0 547.845 229.23 547.845 512s-245.279 512-547.845 512c-302.567 0-547.845-229.23-547.845-512s245.279-512 547.845-512z" />
<glyph unicode="&#xe90f;" glyph-name="log-out" d="M1024 448l-341.333 284.444v-170.667h-398.222v-227.556h398.222v-170.667l341.333 284.444zM113.778 846.222h455.111v113.778h-455.111c-62.578 0-113.778-51.2-113.778-113.778v-796.444c0-62.578 51.2-113.778 113.778-113.778h455.111v113.778h-455.111v796.444z" />
<glyph unicode="&#xe910;" glyph-name="email" horiz-adv-x="1092" d="M525.93 960c-290.464 0-525.93-220.063-525.93-491.522s235.466-491.519 525.93-491.519c290.464 0 525.93 220.059 525.93 491.519s-235.466 491.522-525.93 491.522zM319.465 622.078h411.957c21.848 0 10.603-26.2-1.287-32.925-11.89-6.7-176.478-99.688-182.614-103.138s-14.077-5.1-22.066-5.1c-7.992 0-15.933 1.65-22.066 5.1-6.136 3.45-170.727 96.437-182.617 103.138-11.887 6.725-23.136 32.925-1.307 32.925zM745.068 340.478c0-10.75-13.79-25.6-24.349-25.6h-389.577c-10.56 0-24.349 14.85-24.349 25.6v186.712c0 4.7-0.094 10.825 9.416 5.6 13.506-7.4 178.906-98.562 187.182-103.112 8.273-4.55 14.074-5.097 22.066-5.097 7.988 0 13.79 0.547 22.066 5.097s174.626 95.688 188.131 103.087c9.51 5.225 9.416-0.9 9.416-5.6v-186.687z" />
<glyph unicode="&#xe911;" glyph-name="save" d="M843.072 960h-715.072c-70.464 0-128-57.6-128-128v-768c0-70.4 57.536-128 128-128h768c70.464 0 128 57.6 128 128v695.872l-180.928 200.128zM768 576c0-35.136-28.8-64-64-64h-384c-35.2 0-64 28.864-64 64v320h512v-320zM704 832h-128v-256h128v256z" />
<glyph unicode="&#xe912;" glyph-name="twitter" horiz-adv-x="1092" d="M525.932 960c-290.468 0-525.932-220.058-525.932-491.52s235.464-491.52 525.932-491.52c290.468 0 525.932 220.058 525.932 491.52s-235.464 491.52-525.932 491.52v0zM739.865 557.363c0.219-4.198 0.274-8.397 0.274-12.493 0-128-104.145-275.507-294.686-275.507-58.51 0-112.966 15.974-158.766 43.52 8.053-0.922 16.326-1.28 24.708-1.28 48.539 0 93.188 15.411 128.634 41.421-45.307 0.819-83.546 28.774-96.749 67.174 6.3-1.075 12.765-1.69 19.449-1.69 9.423 0 18.627 1.178 27.283 3.379-47.389 8.909-83.108 48.026-83.108 94.925v1.178c13.97-7.219 29.967-11.622 46.95-12.134-27.831 17.408-46.074 47.002-46.074 80.64 0 17.715 5.095 34.406 14.025 48.691 51.114-58.573 127.374-97.075 213.495-101.222-1.808 7.117-2.684 14.49-2.684 22.118 0 53.402 46.348 96.819 103.598 96.819 29.748 0 56.702-11.776 75.603-30.618 23.612 4.403 45.745 12.39 65.741 23.501-7.725-22.579-24.105-41.574-45.526-53.606 20.982 2.406 40.924 7.578 59.496 15.309-13.86-19.405-31.446-36.506-51.662-50.125v0z" />
<glyph unicode="&#xe913;" glyph-name="users" d="M779.654 27.234c0 109.519-106.642 165.254-210.505 210.018-103.522 44.568-136.582 82.115-136.582 162.572 0 48.226 31.598 32.524 45.446 120.978 5.851 36.669 33.743 0.585 39.107 84.309 0 33.353-15.262 41.643-15.262 41.643s7.753 49.396 10.776 87.43c3.121 39.838-19.407 124.83-112.201 150.918-16.189 16.628-27.16 43.008 22.772 69.437-109.227 5.071-134.632-52.078-192.805-94.11-49.493-36.864-62.854-95.232-60.465-126.293 3.17-38.034 10.874-87.43 10.874-87.43s-15.311-8.29-15.311-41.643c5.364-83.773 33.353-47.64 39.156-84.309 13.848-88.454 45.495-72.753 45.495-120.978 0-80.457-10.338-107.764-113.908-152.332-103.912-44.715-136.241-116.395-135.704-220.209 0.146-31.061-0.536-42.472-0.536-42.472h780.19c0 0-0.536 11.41-0.536 42.472v0zM903.461 308.297c-55.345 22.284-78.263 48.859-78.263 100.742 0 31.256 20.382 21.065 29.355 78.165 3.755 23.601 21.797 0.39 25.259 54.37 0 21.504-9.85 26.868-9.85 26.868s5.022 31.988 6.973 56.515c2.438 30.574-17.749 109.568-110.592 109.568-92.794 0-113.030-78.994-110.641-109.568 2.048-24.478 7.022-56.515 7.022-56.515s-9.85-5.315-9.85-26.868c3.462-53.979 21.504-30.769 25.259-54.37 8.972-57.149 29.355-46.958 29.355-78.165 0-51.883-21.358-76.166-88.21-104.936-3.365-1.414-5.851-3.316-8.923-4.974 79.97-34.718 206.068-94.647 235.91-216.844h128.975v113.030c0 48.762-13.312 89.429-71.778 112.981v0z" />
</font>
</defs>
</svg>
