<?xml version="1.0" standalone="no"?>
<!DOCTYPE svg PUBLIC "-//W3C//DTD SVG 1.1//EN" "http://www.w3.org/Graphics/SVG/1.1/DTD/svg11.dtd" >
<svg xmlns="http://www.w3.org/2000/svg">
<metadata></metadata>
<defs>
<font id="nimbus_sans_nov_d_otregular" horiz-adv-x="1071" >
<font-face units-per-em="2048" ascent="1638" descent="-410" />
<missing-glyph horiz-adv-x="512" />
<glyph unicode="&#xfb01;" horiz-adv-x="907" d="M-12 885v100h168v84q0 94 6.5 135t27.5 74q59 98 216 98q42 0 94 -8v-102q-49 8 -80 8q-98 0 -125 -53q-19 -34 -19 -138v-98h199v-100h-199v-885h-120v885h-168zM670 0v985h121v-985h-121zM670 1174v192h121v-192h-121z" />
<glyph unicode="&#xfb02;" horiz-adv-x="907" d="M-12 885v100h168v84q0 94 6.5 135t27.5 74q59 98 216 98q42 0 94 -8v-102q-49 8 -80 8q-98 0 -125 -53q-19 -34 -19 -138v-98h199v-100h-199v-885h-120v885h-168zM670 0v1366h121v-1366h-121z" />
<glyph horiz-adv-x="0" />
<glyph horiz-adv-x="682" />
<glyph unicode=" "  horiz-adv-x="512" />
<glyph unicode="&#x09;" horiz-adv-x="512" />
<glyph unicode="&#xa0;" horiz-adv-x="512" />
<glyph unicode="!" horiz-adv-x="430" d="M164 0v190h143v-190h-143zM170 965v401h129v-401l-29 -623h-71z" />
<glyph unicode="&#x22;" horiz-adv-x="532" d="M68 1366h129l-17 -547h-94zM334 1366h129l-17 -547h-94z" />
<glyph unicode="#" d="M43 471l12 88h252l33 225h-252l12 88h252l51 371h91l-54 -371h240l51 371h90l-53 -371h260l-12 -88h-260l-31 -225h258l-12 -88h-258l-58 -403h-88l56 403h-238l-57 -403h-88l55 403h-252zM397 559h238l33 225h-240z" />
<glyph unicode="$" d="M57 403h119q-2 -158 76.5 -240t245.5 -95v573q-196 38 -289.5 124.5t-93.5 229.5q0 155 103 252t280 107v166h88v-166q184 -7 288 -107.5t99 -265.5h-117q-6 255 -270 270v-516q218 -40 318 -131.5t100 -251.5q0 -107 -48 -190.5t-139 -136.5q-85 -46 -231 -54v-227h-88 v225q-209 4 -327.5 121.5t-113.5 312.5zM229 1004q0 -61 29.5 -112t83.5 -83q43 -26 156 -53v497q-124 -4 -196.5 -71.5t-72.5 -177.5zM586 70q76 6 122 20.5t85 46.5q94 76 94 207q0 145 -125 217q-39 22 -176 64v-555z" />
<glyph unicode="%" horiz-adv-x="1564" d="M59 999q0 170 82 265.5t230 95.5q141 0 219 -92t78 -260q0 -177 -80.5 -275t-225.5 -98q-147 0 -225 93.5t-78 270.5zM164 991q0 -132 51 -203t145 -71q97 0 150 74.5t53 212.5q0 133 -50.5 202.5t-145.5 69.5q-100 0 -151.5 -72.5t-51.5 -212.5zM354 0l750 1325h100 l-751 -1325h-99zM897 328q0 178 81 274t230 96q139 0 217 -92t78 -256q0 -182 -78 -278.5t-225 -96.5t-225 91t-78 262zM1004 332q0 -134 51 -205.5t147 -71.5q94 0 145.5 74t51.5 209q0 132 -51.5 204t-143.5 72q-200 0 -200 -282z" />
<glyph unicode="&#x26;" horiz-adv-x="1179" d="M61 344q0 180 164 303q99 75 174 113q-91 113 -128.5 187t-37.5 143q0 121 86 197.5t220 76.5q129 0 213 -76t84 -194q0 -103 -63 -187t-206 -172l289 -354q40 101 47 223h113q-1 -73 -26 -167.5t-56 -147.5l244 -289h-154l-156 188q-144 -215 -397 -215 q-181 0 -295.5 104t-114.5 267zM184 346q0 -114 86.5 -193t210.5 -79q191 0 320 198l-336 410q-157 -91 -219 -165t-62 -171zM346 1092q0 -49 36.5 -113t121.5 -164q219 124 219 270q0 76 -54 128.5t-132 52.5q-82 0 -136.5 -49.5t-54.5 -124.5z" />
<glyph unicode="'" horiz-adv-x="266" d="M68 1366h129l-17 -547h-94z" />
<glyph unicode="(" horiz-adv-x="546" d="M88 498q0 223 73 456.5t199 411.5h95q-118 -186 -182 -413t-64 -459q0 -222 63 -443.5t183 -417.5h-95q-143 235 -207.5 440.5t-64.5 424.5z" />
<glyph unicode=")" horiz-adv-x="546" d="M92 -367q118 187 182 414t64 459q0 222 -63 443t-183 417h94q144 -236 208.5 -440t64.5 -424q0 -222 -73.5 -455.5t-199.5 -413.5h-94z" />
<glyph unicode="*" d="M248 1139l24 71l222 -80v236h79v-236l222 80l26 -71l-223 -76l137 -189l-59 -45l-144 193l-139 -191l-65 46l141 186z" />
<glyph unicode="+" d="M76 618v89h413v413h89v-413h413v-89h-413v-413h-89v413h-413z" />
<glyph unicode="," horiz-adv-x="348" d="M84 -184q85 34 88 184h-76v199h158v-142q0 -145 -37.5 -216t-132.5 -105v80z" />
<glyph unicode="-" horiz-adv-x="454" d="M0 451v108h455v-108h-455z" />
<glyph unicode="." horiz-adv-x="348" d="M96 0v205h158v-205h-158z" />
<glyph unicode="/" horiz-adv-x="806" d="M-76 -367l709 1733h98l-704 -1733h-103z" />
<glyph unicode="0" d="M68 645q0 311 84 477q119 232 389 232q127 0 227 -61.5t154 -172.5q82 -165 82 -465q0 -279 -80 -446q-55 -115 -155 -176.5t-232 -61.5q-236 0 -352.5 167t-116.5 507zM193 641q0 -224 55 -369q37 -92 114 -144t175 -52q342 0 342 583q0 293 -85.5 441.5t-252.5 148.5 q-177 0 -262.5 -149.5t-85.5 -458.5z" />
<glyph unicode="1" d="M217 997v93q107 2 168 11t105 37.5t65 73t39 125.5h96v-1337h-127v997h-51h-131h-109h-55z" />
<glyph unicode="2" d="M84 0q13 179 98.5 290t323.5 263q195 129 263.5 215t68.5 203q0 124 -81.5 201t-213.5 77q-85 0 -153 -37t-105 -104q-46 -83 -49 -229h-119q-1 226 113 350.5t321 124.5q187 0 299.5 -104t112.5 -277q0 -170 -127 -303q-51 -54 -112.5 -101t-195.5 -133 q-160 -101 -223.5 -168.5t-83.5 -158.5h748v-109h-885z" />
<glyph unicode="3" d="M59 430h117q0 -121 45 -201q41 -71 121 -112t176 -41q145 0 240.5 85.5t95.5 215.5q0 152 -119 227q-77 53 -237 53q-37 0 -62 -2v101h19h34q151 0 234.5 64t83.5 181q0 112 -78 180t-207 68q-148 0 -229.5 -86.5t-87.5 -249.5h-115q8 212 121 326.5t315 114.5 q181 0 292.5 -95.5t111.5 -250.5q0 -109 -61 -187t-167 -106q134 -26 205.5 -111t71.5 -217q0 -186 -128.5 -301t-334.5 -115q-138 0 -243 54t-160 155q-54 97 -54 250z" />
<glyph unicode="4" d="M59 328v112l629 897h103v-909h202v-100h-202v-328h-113v328h-619zM162 428h516v733z" />
<glyph unicode="5" d="M78 387h117q10 -146 98 -230.5t229 -84.5q145 0 240.5 102t95.5 256q0 157 -94.5 256.5t-243.5 99.5q-189 0 -299 -155l-104 4l131 690h670v-108h-582l-96 -461q109 135 305 135q191 0 314.5 -127.5t123.5 -325.5q0 -202 -130.5 -334.5t-330.5 -132.5q-198 0 -322 116.5 t-122 299.5z" />
<glyph unicode="6" d="M84 631q0 348 126 535.5t359 187.5q170 0 275 -93t125 -260h-119q-20 117 -95 182.5t-190 65.5q-243 0 -325 -291q-32 -111 -41 -319q54 113 150.5 173t223.5 60q186 0 307 -124.5t121 -315.5q0 -200 -126.5 -330.5t-319.5 -130.5q-121 0 -220.5 54t-158.5 151 q-92 155 -92 455zM225 428q0 -152 93.5 -252t234.5 -100t232.5 98t91.5 250q0 149 -91 246.5t-231 97.5q-145 0 -237.5 -95.5t-92.5 -244.5z" />
<glyph unicode="7" d="M129 1212v113h862v-108q-235 -239 -376 -556.5t-166 -660.5h-130q15 314 169.5 651.5t385.5 560.5h-745z" />
<glyph unicode="8" d="M76 377q0 133 71.5 224t200.5 122q-103 28 -161 105t-58 184q0 154 112 248t296 94q183 0 294 -92t111 -244q0 -109 -55.5 -184.5t-161.5 -110.5q133 -34 201.5 -119t68.5 -217q0 -192 -123.5 -304t-336.5 -112q-209 0 -334 110t-125 296zM201 379q0 -137 91.5 -220 t242.5 -83q152 0 243.5 82.5t91.5 220.5q0 132 -91.5 211.5t-243.5 79.5t-243 -79.5t-91 -211.5zM250 1006q0 -109 78.5 -174.5t208.5 -65.5q132 0 208 64.5t76 175.5q0 114 -75.5 178.5t-206.5 64.5q-134 0 -211.5 -65.5t-77.5 -177.5z" />
<glyph unicode="9" d="M70 897q0 198 126.5 327.5t319.5 129.5q141 0 246 -66.5t162 -191.5q63 -140 63 -398q0 -273 -69 -440q-58 -139 -163 -213t-245 -74q-169 0 -280 95.5t-126 255.5h117q17 -113 96 -179.5t197 -66.5q132 0 218 91.5t118 268.5q15 91 18 264q-24 -50 -38 -73.5t-39 -51.5 q-51 -58 -126.5 -89t-164.5 -31q-189 0 -309.5 124t-120.5 318zM195 901q0 -149 90 -245.5t229 -96.5q145 0 236.5 95.5t91.5 246.5q0 149 -92.5 248.5t-229.5 99.5q-143 0 -234 -97.5t-91 -250.5z" />
<glyph unicode=":" horiz-adv-x="382" d="M129 0v205h158v-205h-158zM129 780v205h158v-205h-158z" />
<glyph unicode=";" horiz-adv-x="382" d="M117 -184q85 34 88 184h-76v199h158v-142q0 -145 -37.5 -216t-132.5 -105v80zM129 780v205h158v-205h-158z" />
<glyph unicode="&#x3c;" horiz-adv-x="1024" d="M68 629v112l886 410v-129l-749 -338l749 -336v-129z" />
<glyph unicode="=" d="M76 471v88h915v-88h-915zM76 766v88h915v-88h-915z" />
<glyph unicode="&#x3e;" horiz-adv-x="1024" d="M70 219v129l747 338l-747 336v129l886 -410v-112z" />
<glyph unicode="?" horiz-adv-x="940" d="M68 942q3 93 17.5 154t47.5 114q54 88 148 136.5t211 48.5q177 0 287 -98.5t110 -256.5q0 -130 -76 -231q-40 -50 -154 -156q-76 -70 -98 -127t-22 -186h-115q1 62 2.5 97t11 74t20 61.5t39.5 60t59 67.5t87 86q121 121 121 246q0 114 -77 185t-200 71q-177 0 -256 -139 q-24 -40 -34 -84t-15 -123h-114zM408 0v190h143v-190h-143z" />
<glyph unicode="@" horiz-adv-x="1492" d="M70 678q0 148 56 281t152 229t228.5 152.5t279.5 56.5q132 0 250 -46t203 -124t134.5 -187t49.5 -231q0 -245 -184 -397q-61 -52 -130.5 -81.5t-129.5 -29.5q-61 0 -99 30.5t-46 86.5q-60 -61 -114.5 -88t-119.5 -27q-98 0 -159.5 71.5t-61.5 186.5q0 123 57.5 240 t151 189.5t192.5 72.5q139 0 197 -135l37 102h96l-174 -506q-18 -56 -18 -90q0 -35 21.5 -54.5t61.5 -19.5q106 0 216 107q139 139 139 338q0 146 -75 267.5t-205.5 191t-287.5 69.5q-134 0 -253.5 -51t-205.5 -138t-136 -208.5t-50 -257.5q0 -177 84 -325t229.5 -233 t319.5 -85q167 0 317 85t228 224h74q-32 -71 -68.5 -117.5t-99.5 -95.5q-201 -162 -453 -162q-192 0 -354 94t-256 257.5t-94 357.5zM483 535q0 -80 36 -126.5t97 -46.5q84 0 154 70q28 29 47.5 65t44.5 103l47 135q27 76 27 117q0 62 -39 105.5t-94 43.5q-76 0 -151 -68.5 t-122 -177.5t-47 -220z" />
<glyph unicode="A" horiz-adv-x="1263" d="M10 0l551 1370h146l544 -1370h-145l-164 430h-625l-167 -430h-140zM356 535h547l-272 698z" />
<glyph unicode="B" horiz-adv-x="1255" d="M129 0v1366h551q106 0 172.5 -12t120.5 -41q80 -44 125 -120.5t45 -168.5q0 -112 -64.5 -193.5t-173.5 -107.5q87 -19 139 -49q72 -44 112 -118t40 -165q0 -114 -55.5 -203.5t-157.5 -140.5q-100 -47 -270 -47h-584zM258 113h408q201 0 282 51q119 74 119 225 q0 159 -143 227q-82 39 -269 39h-397v-542zM258 760h365q162 0 239 26q69 26 110.5 86t41.5 134q0 154 -135 217q-64 30 -224 30h-397v-493z" />
<glyph unicode="C" horiz-adv-x="1333" d="M72 680q0 321 176.5 519t460.5 198q272 0 432 -174q112 -121 127 -267h-129q-34 152 -150.5 240t-283.5 88q-227 0 -365.5 -166t-138.5 -436q0 -272 136 -436t363 -164q192 0 311 115t144 325h129q-22 -252 -182 -402.5t-406 -150.5q-283 0 -453.5 195t-170.5 516z" />
<glyph unicode="D" horiz-adv-x="1304" d="M129 0v1366h475q147 0 248.5 -32.5t183.5 -104.5q95 -88 146 -222t51 -298q0 -361 -193 -557q-82 -83 -178.5 -117.5t-247.5 -34.5h-485zM258 113h326q141 0 222 25.5t146 90.5q152 158 152 471q0 282 -146 428q-64 66 -148 95.5t-206 29.5h-346v-1140z" />
<glyph unicode="E" horiz-adv-x="1126" d="M129 0v1366h948v-113h-819v-489h766v-113h-766v-538h827v-113h-956z" />
<glyph unicode="F" horiz-adv-x="1001" d="M129 0v1366h872v-113h-743v-489h662v-113h-662v-651h-129z" />
<glyph unicode="G" horiz-adv-x="1406" d="M72 670q0 214 81.5 379.5t229.5 256.5t338 91q228 0 382 -123t185 -330h-127q-26 152 -148 246t-292 94q-236 0 -378 -167t-142 -445q0 -267 142.5 -428.5t377.5 -161.5q141 0 250.5 64t165.5 178q55 110 55 264h-467v106h582v-694h-86l-27 254q-63 -135 -188.5 -210 t-290.5 -75q-188 0 -334.5 88.5t-227.5 248t-81 364.5z" />
<glyph unicode="H" horiz-adv-x="1335" d="M129 0v1366h129v-594h819v594h129v-1366h-129v659h-819v-659h-129z" />
<glyph unicode="I" horiz-adv-x="387" d="M129 0v1366h129v-1366h-129z" />
<glyph unicode="J" horiz-adv-x="886" d="M2 401q0 27 2 54h125q0 -97 1 -118.5t7 -53.5q38 -195 258 -195q148 0 211 94q45 64 45 238v958h129v-975q0 -111 -13 -173.5t-48 -116.5q-31 -50 -63 -74t-89 -39q-95 -25 -184 -25q-120 0 -209.5 48.5t-130.5 136.5q-41 83 -41 241z" />
<glyph unicode="K" horiz-adv-x="1212" d="M129 0v1366h129v-735l795 735h174l-615 -557l645 -809h-165l-572 719l-262 -238v-481h-129z" />
<glyph unicode="L" horiz-adv-x="1026" d="M129 0v1366h129v-1253h770v-113h-899z" />
<glyph unicode="M" horiz-adv-x="1587" d="M129 0v1366h178l492 -1204l479 1204h180v-1366h-125v1194l-477 -1194h-117l-485 1178v-1178h-125z" />
<glyph unicode="N" horiz-adv-x="1333" d="M129 0v1366h145l805 -1173v1173h125v-1366h-145l-805 1165v-1165h-125z" />
<glyph unicode="O" horiz-adv-x="1427" d="M72 682q0 322 179 518.5t472 196.5q184 0 329 -91t225.5 -254.5t80.5 -371.5q0 -210 -80.5 -371.5t-227.5 -250.5t-337 -89q-287 0 -464 196.5t-177 516.5zM201 686q0 -271 142 -437.5t372 -166.5t372 165t142 433q0 267 -142 435.5t-366 168.5q-235 0 -377.5 -164 t-142.5 -434z" />
<glyph unicode="P" horiz-adv-x="1169" d="M129 0v1366h545q115 0 184 -15.5t127 -52.5q156 -107 156 -317q0 -215 -152 -324q-56 -41 -125.5 -58t-173.5 -17h-432v-582h-129zM258 694h395q90 0 143.5 10.5t94.5 36.5q121 76 121 234q0 159 -119 231q-42 28 -93.5 37.5t-152.5 9.5h-389v-559z" />
<glyph unicode="Q" horiz-adv-x="1421" d="M72 680q0 210 81 373t227.5 253.5t334.5 90.5t334.5 -89.5t227.5 -251.5t81 -370q0 -165 -52.5 -306t-150.5 -239l195 -147l-66 -82l-215 164q-61 -49 -157 -78t-195 -29q-189 0 -336 89.5t-228 251t-81 370.5zM201 682q0 -272 142 -436t378 -164q141 0 250 72l-183 135 l68 84l203 -158q170 185 170 471q0 266 -142.5 432t-371.5 166t-371.5 -167t-142.5 -435z" />
<glyph unicode="R" horiz-adv-x="1288" d="M129 0v1366h600q181 0 283 -61q159 -101 159 -308q0 -131 -69.5 -219t-196.5 -119q60 -9 100 -29.5t74 -60.5q40 -56 51 -106t23 -232q8 -106 19.5 -155t35.5 -76h-145q-30 46 -35 188q-7 170 -23 235.5t-61 113.5q-36 39 -103 56t-182 17h-401v-610h-129zM258 715h385 q196 0 281 49q118 68 118 225q0 159 -131 225q-74 39 -223 39h-430v-538z" />
<glyph unicode="S" horiz-adv-x="1138" d="M23 438v15h124q3 -85 20.5 -140.5t55.5 -101.5q111 -133 355 -133q177 0 277.5 75t100.5 207q0 149 -159 215q-75 32 -301 84q-136 32 -199 54.5t-113 56.5q-57 40 -87.5 105t-30.5 145q0 173 128.5 275t348.5 102q228 0 357 -110.5t138 -313.5h-125q-27 315 -381 315 q-160 0 -249.5 -69.5t-89.5 -192.5q0 -114 83 -166q41 -25 97.5 -43t187.5 -49q161 -37 230 -58.5t122 -50.5q168 -95 168 -286q0 -187 -138 -295.5t-376 -108.5q-252 0 -398 125.5t-146 343.5z" />
<glyph unicode="T" horiz-adv-x="1064" d="M-12 1253v113h1089v-113h-479v-1253h-129v1253h-481z" />
<glyph unicode="U" horiz-adv-x="1277" d="M109 551v815h129v-819q0 -121 14 -190.5t49 -125.5q99 -153 348 -153q239 0 330 147q35 55 49 128t14 196v817h129v-819q0 -146 -18 -226t-68 -155q-135 -197 -438 -197q-335 0 -467 221q-40 66 -55.5 146.5t-15.5 214.5z" />
<glyph unicode="V" horiz-adv-x="1191" d="M10 1366h146l444 -1223l442 1223h140l-508 -1366h-152z" />
<glyph unicode="W" horiz-adv-x="1773" d="M20 1366h138l317 -1188l338 1188h150l342 -1188l317 1188h131l-379 -1366h-141l-350 1214l-344 -1214h-142z" />
<glyph unicode="X" horiz-adv-x="1134" d="M-6 0l495 702l-464 664h153l389 -559l400 559h145l-467 -664l494 -702h-158l-418 600l-420 -600h-149z" />
<glyph unicode="Y" horiz-adv-x="1150" d="M-29 1366h158l453 -682l452 682h150l-541 -801v-565h-129v565z" />
<glyph unicode="Z" horiz-adv-x="1134" d="M37 0v117l895 1136h-832v113h985v-115l-897 -1138h916v-113h-1067z" />
<glyph unicode="[" horiz-adv-x="546" d="M152 -367v1733h309v-96h-197v-1540h197v-97h-309z" />
<glyph unicode="\" horiz-adv-x="806" d="M76 1366h98l709 -1733h-103z" />
<glyph unicode="]" horiz-adv-x="546" d="M84 -270h197v1540h-197v96h309v-1733h-309v97z" />
<glyph unicode="^" horiz-adv-x="1024" d="M72 776l366 592h148l366 -592h-125l-317 504l-313 -504h-125z" />
<glyph unicode="_" horiz-adv-x="1024" d="M0 -139h1024v-88h-1024v88z" />
<glyph unicode="`" horiz-adv-x="1024" d="M260 1405h148l190 -272h-96z" />
<glyph unicode="a" horiz-adv-x="964" d="M43 252q0 195 186 266q52 21 98 28.5t248 26.5q89 9 122.5 36.5t33.5 90.5q0 111 -62.5 163t-195.5 52q-126 0 -191 -56t-77 -177h-117q7 160 110.5 246t286.5 86q135 0 229.5 -48.5t119.5 -131.5q14 -55 14 -162v-441q0 -92 11.5 -115.5t55.5 -23.5q19 0 46 8v-94 q-43 -14 -97 -14q-69 0 -98 41t-29 139q-66 -104 -155.5 -152.5t-216.5 -48.5q-150 0 -236 75t-86 206zM164 262q0 -87 63 -139.5t166 -52.5q148 0 243 86.5t95 220.5v162q-30 -27 -75 -38.5t-197 -31.5q-158 -22 -226.5 -70t-68.5 -137z" />
<glyph unicode="b" horiz-adv-x="1097" d="M119 0v1366h121v-565q44 103 135.5 158t216.5 55q201 0 320.5 -141t119.5 -377q0 -241 -120.5 -383t-323.5 -142q-264 0 -357 222v-193h-112zM236 494q0 -192 92 -307t247 -115q152 0 244 115t92 307q0 191 -90 305t-241 114q-160 0 -252 -112t-92 -307z" />
<glyph unicode="c" horiz-adv-x="985" d="M68 483q0 242 124.5 386.5t333.5 144.5q171 0 278.5 -90t127.5 -250h-123q-23 117 -94.5 178t-186.5 61q-155 0 -247.5 -114t-92.5 -307q0 -192 89.5 -306t240.5 -114q123 0 201.5 73.5t97.5 206.5h121q-25 -180 -135 -280.5t-281 -100.5q-205 0 -329.5 140t-124.5 372z " />
<glyph unicode="d" horiz-adv-x="1099" d="M68 494q0 236 120.5 378t321.5 142q248 0 350 -211v563h121v-1366h-113v197q-104 -226 -354 -226q-204 0 -325 142t-121 381zM188 494q0 -192 91 -307t245 -115q157 0 248.5 113t91.5 307q0 199 -94 309q-45 54 -109 83t-133 29q-158 0 -249 -112t-91 -307z" />
<glyph unicode="e" horiz-adv-x="1011" d="M68 481q0 234 126 383.5t324 149.5q126 0 226 -65t155 -183q53 -115 53 -303h-764q4 -187 91.5 -289t242.5 -102q118 0 195 64.5t108 189.5h115q-32 -170 -141.5 -262.5t-278.5 -92.5q-204 0 -328 140t-124 370zM190 563h639q-8 161 -92.5 255.5t-222.5 94.5 q-137 0 -220.5 -90t-103.5 -260z" />
<glyph unicode="f" horiz-adv-x="466" d="M-12 885v100h168v84q0 94 6.5 135t27.5 74q59 98 216 98q42 0 94 -8v-102q-49 8 -80 8q-98 0 -125 -53q-19 -34 -19 -138v-98h199v-100h-199v-885h-120v885h-168z" />
<glyph unicode="g" horiz-adv-x="1073" d="M68 504q0 229 120 369.5t318 140.5q114 0 195 -51.5t141 -161.5v184h112v-891q0 -112 -13.5 -179.5t-45.5 -123.5q-51 -86 -150 -132t-235 -46q-182 0 -288 78.5t-116 220.5h121q30 -203 285 -203q167 0 245.5 86.5t78.5 270.5v163q-53 -110 -136 -162.5t-206 -52.5 q-194 0 -310 133.5t-116 356.5zM188 516q0 -184 87 -292.5t233 -108.5q148 0 237 109.5t89 291.5q0 181 -86.5 289t-231.5 108q-152 0 -240 -106.5t-88 -290.5z" />
<glyph unicode="h" horiz-adv-x="1034" d="M119 0v1366h121v-565q40 100 130 156.5t210 56.5q98 0 174.5 -38t119.5 -108q28 -43 39 -95.5t11 -137.5v-635h-121v618q0 137 -43 199q-70 92 -211 92q-88 0 -156 -39.5t-106 -113.5q-28 -52 -37.5 -109t-9.5 -164v-483h-121z" />
<glyph unicode="i" horiz-adv-x="354" d="M117 0v985h121v-985h-121zM117 1174v192h121v-192h-121z" />
<glyph unicode="j" horiz-adv-x="356" d="M-59 -272q20 -4 45 -4q85 0 108 37t23 169v1055h121v-1051q0 -105 -9.5 -154.5t-35.5 -84.5q-54 -74 -195 -74q-19 0 -57 6v101zM117 1174v192h121v-192h-121z" />
<glyph unicode="k" horiz-adv-x="962" d="M119 0v1366h121v-862l548 481h162l-422 -362l451 -623h-152l-391 541l-196 -168v-373h-121z" />
<glyph unicode="l" horiz-adv-x="354" d="M117 0v1366h121v-1366h-121z" />
<glyph unicode="m" horiz-adv-x="1597" d="M119 0v985h112v-172q71 108 147 154.5t181 46.5q212 0 285 -193q59 100 137 146.5t190 46.5q82 0 150 -29.5t109 -83.5q32 -43 44.5 -92t12.5 -131v-678h-121v645q0 120 -31 170q-26 44 -77.5 69t-118.5 25q-80 0 -142 -35.5t-96 -99.5q-37 -73 -37 -207v-567h-121v643 q0 113 -26 166q-25 47 -75 73.5t-116 26.5q-81 0 -146.5 -39t-100.5 -108q-39 -79 -39 -219v-543h-121z" />
<glyph unicode="n" horiz-adv-x="1032" d="M117 0v985h112v-184q45 75 82 110q103 103 269 103q95 0 172 -36t118 -99q29 -45 40.5 -97.5t11.5 -148.5v-633h-121v596q0 92 -9.5 141t-33.5 82q-29 42 -83.5 66t-121.5 24q-91 0 -162 -40.5t-108 -112.5q-26 -49 -35.5 -105.5t-9.5 -154.5v-496h-121z" />
<glyph unicode="o" horiz-adv-x="1069" d="M68 492q0 239 128.5 380.5t346.5 141.5q209 0 333.5 -143.5t124.5 -381.5t-125 -378t-339 -140q-213 0 -341 142t-128 379zM190 492q0 -192 94.5 -306t254.5 -114q157 0 249.5 114t92.5 306q0 190 -93 305.5t-247 115.5q-161 0 -256 -114t-95 -307z" />
<glyph unicode="p" horiz-adv-x="1095" d="M119 -367v1352h112v-188q115 217 353 217q202 0 324 -144t122 -381q0 -232 -121 -375t-319 -143q-253 0 -350 213v-551h-121zM236 489q0 -191 92 -304t247 -113q151 0 242.5 114t91.5 303q0 192 -91.5 308t-242.5 116q-160 0 -249.5 -112t-89.5 -312z" />
<glyph unicode="q" horiz-adv-x="1095" d="M68 487q0 242 121.5 384.5t326.5 142.5q182 0 285 -115q30 -37 65 -102v188h113v-1352h-121v549q-47 -103 -137.5 -157t-214.5 -54q-201 0 -319.5 140t-118.5 376zM188 487q0 -190 90.5 -302.5t243.5 -112.5q155 0 247.5 114.5t92.5 307.5q0 192 -90.5 305.5 t-241.5 113.5q-160 0 -251 -114t-91 -312z" />
<glyph unicode="r" horiz-adv-x="575" d="M119 0v985h112v-235q63 135 147.5 193t219.5 58q6 0 10 -2v-120l-30 2q-158 0 -252 -111q-51 -58 -68.5 -134t-17.5 -233v-403h-121z" />
<glyph unicode="s" horiz-adv-x="903" d="M39 322h117q8 -103 45 -152q36 -46 100 -72t145 -26q121 0 196 52.5t75 137.5q0 74 -57.5 115t-213.5 78q-135 33 -182.5 48t-85.5 36q-52 27 -81 79.5t-29 116.5q0 129 96.5 204t261.5 75q210 0 305 -115q34 -39 50 -83t20 -116h-119q-10 110 -74 161.5t-190 51.5 q-107 0 -169.5 -45t-62.5 -123q0 -49 23.5 -78t82 -52t177.5 -50q106 -25 162 -45t100 -49q49 -32 77 -84.5t28 -114.5q0 -133 -109.5 -217t-282.5 -84q-190 0 -295 91.5t-110 259.5z" />
<glyph unicode="t" horiz-adv-x="473" d="M-37 885v100h172v303h121v-303h205v-100h-205v-623q0 -103 23.5 -133.5t101.5 -30.5q27 0 80 6v-104q-65 -6 -109 -6q-147 0 -192 80q-15 28 -20 74.5t-5 175.5v561h-172z" />
<glyph unicode="u" horiz-adv-x="1030" d="M111 350v635h120v-584q0 -133 25 -198q23 -57 84.5 -92t138.5 -35q79 0 147 36t109 101q58 96 58 266v506h118v-985h-112v184q-49 -103 -138.5 -158t-205.5 -55q-83 0 -158 32.5t-119 86.5q-67 87 -67 260z" />
<glyph unicode="v" horiz-adv-x="849" d="M-12 985h129l321 -840l301 840h123l-362 -985h-131z" />
<glyph unicode="w" horiz-adv-x="1388" d="M-2 985h131l256 -819l242 819h139l244 -817l256 817h125l-322 -985h-129l-246 813l-241 -813h-134z" />
<glyph unicode="x" horiz-adv-x="886" d="M-16 0l381 518l-353 467h154l274 -371l281 371h143l-350 -459l389 -526h-151l-314 430l-311 -430h-143z" />
<glyph unicode="y" horiz-adv-x="860" d="M-12 985h133l325 -829l304 829h122l-387 -1024q-73 -192 -108 -244q-62 -92 -182 -92q-39 0 -80 6l-27 2v107q49 -12 86 -12q56 0 93.5 33.5t66.5 109.5q33 83 35 88q18 37 18 41t-2 6z" />
<glyph unicode="z" horiz-adv-x="845" d="M23 0v98l641 787h-598v100h755v-86l-651 -799h678v-100h-825z" />
<glyph unicode="{" horiz-adv-x="546" d="M35 455v94q63 19 90 61.5t27 126.5v350q0 148 66.5 213.5t217.5 65.5h23v-96h-23q-40 0 -77 -12.5t-56 -32.5q-39 -42 -39 -148v-346q0 -97 -24.5 -148t-87.5 -85q63 -34 87.5 -86.5t24.5 -151.5v-330q0 -65 10.5 -102.5t36.5 -60.5q18 -15 53.5 -26t71.5 -11h23v-97h-23 q-156 0 -220 69t-64 237v321q0 89 -26 132.5t-91 62.5z" />
<glyph unicode="|" horiz-adv-x="1024" d="M449 -342v1708h129v-1708h-129z" />
<glyph unicode="}" horiz-adv-x="546" d="M88 -270h23q40 0 76 12.5t55 32.5q39 42 39 147v346q0 97 24.5 148.5t87.5 85.5q-63 34 -87.5 86t-24.5 151v330q0 122 -45 164q-18 15 -53.5 26t-71.5 11h-23v96h23q155 0 218.5 -69t63.5 -236v-322q0 -89 26.5 -132t92.5 -62v-94q-65 -19 -92 -62t-27 -127v-350 q0 -148 -66.5 -213.5t-215.5 -65.5h-23v97z" />
<glyph unicode="~" horiz-adv-x="1366" d="M195 1257q109 220 272 220q77 0 238 -84q86 -44 124.5 -58t73.5 -14q58 0 103.5 36.5t95.5 123.5l72 -56q-104 -219 -283 -219q-43 0 -88.5 17.5t-169.5 81.5q-108 57 -172 57q-56 0 -102 -37.5t-93 -122.5z" />
<glyph unicode="&#xa1;" horiz-adv-x="430" d="M164 1176v190h143v-190h-143zM170 0v399l29 623h71l29 -623v-399h-129z" />
<glyph unicode="&#xa2;" d="M106 698q0 137 44.5 246t128.5 178q88 74 235 99v168h88v-168q156 -6 259.5 -99.5t117.5 -240.5h-123q-13 99 -83.5 164.5t-170.5 74.5v-837q102 5 175.5 81.5t88.5 194.5h117q-17 -160 -123 -265.5t-258 -111.5v-205h-88v205q-192 20 -300 156t-108 360zM231 705 q0 -177 73 -285.5t210 -136.5v833q-135 -23 -209 -131t-74 -280z" />
<glyph unicode="&#xa3;" d="M100 70q215 167 215 354q0 79 -47 188h-162v88h111q-58 104 -78 163t-20 128q0 163 122.5 266t315.5 103q214 0 330.5 -118t116.5 -335h-119q-3 167 -89 257.5t-241 90.5q-138 0 -224.5 -74.5t-86.5 -193.5q0 -51 15 -98.5t54 -120.5q8 -15 14.5 -27.5t10.5 -20t10 -20.5 h314v-88h-267q37 -78 37 -166q0 -90 -41.5 -165.5t-140.5 -167.5l-4 -4q-5 -4 -9 -8l-8.5 -8.5t-5.5 -6.5q78 38 117.5 49.5t93.5 11.5q49 0 85.5 -9t158.5 -50q50 -16 96 -16q116 0 221 100l62 -90q-55 -57 -129.5 -88t-153.5 -31q-52 0 -85.5 8t-149.5 49q-85 31 -158 31 q-53 0 -99 -18t-114 -64z" />
<glyph unicode="&#xa4;" horiz-adv-x="1316" d="M100 1208l70 70l188 -188q77 57 146.5 82.5t152.5 25.5t152 -25.5t143 -82.5l191 188l69 -70l-190 -188q106 -140 106 -293q0 -158 -104 -293l190 -190l-69 -68l-191 191q-133 -109 -295 -109q-147 0 -297 107l-188 -189l-68 68l187 190q-107 137 -107 295q0 153 107 291 zM299 727q0 -149 105 -254.5t253 -105.5t253.5 105.5t105.5 254.5t-104 256t-250 107q-152 0 -257.5 -105.5t-105.5 -257.5z" />
<glyph unicode="&#xa5;" d="M35 1325h135l369 -641l366 641h129l-317 -547h276v-82h-325l-76 -131v-100h360v-82h-360v-383h-113v383h-362v82h362v100l-78 131h-325v82h278z" />
<glyph unicode="&#xa6;" horiz-adv-x="1024" d="M449 313h129v-655h-129v655zM449 688v678h129v-678h-129z" />
<glyph unicode="&#xa7;" d="M88 606q0 95 56 169.5t151 105.5q-51 46 -73.5 93t-22.5 107q0 123 92 202t237 79q164 0 255 -88.5t94 -251.5h-117q-15 240 -234 240q-93 0 -151 -49.5t-58 -127.5q0 -87 89 -153q30 -23 233 -139q203 -117 272.5 -193t69.5 -182q0 -93 -55 -166t-154 -111 q61 -54 86 -103.5t25 -115.5q0 -126 -96 -207.5t-246 -81.5q-169 0 -263.5 91.5t-101.5 263.5h119q15 -254 250 -254q95 0 156 51t61 131q0 54 -31.5 98.5t-107.5 96.5q-32 22 -293 174q-131 77 -186.5 150.5t-55.5 170.5zM201 616q0 -80 75 -147q30 -27 74.5 -55.5 t173.5 -102.5q142 -86 174 -110q81 29 124.5 80.5t43.5 117.5q0 58 -32.5 103t-117.5 103.5t-270 162.5q-50 29 -81 53q-85 -38 -124.5 -87.5t-39.5 -117.5z" />
<glyph unicode="&#xa8;" horiz-adv-x="1024" d="M276 1174v194h123v-194h-123zM623 1174v194h122v-194h-122z" />
<glyph unicode="&#xa9;" horiz-adv-x="1564" d="M70 682q0 196 96 360.5t262.5 259.5t364.5 95q188 0 350 -96.5t257 -261.5t95 -357q0 -145 -56.5 -277t-152 -227.5t-227.5 -152t-277 -56.5q-144 0 -276 57t-227.5 152.5t-152 227.5t-56.5 276zM147 682q0 -130 50.5 -249.5t136 -205.5t203 -137t245.5 -51 q172 0 318.5 86.5t231.5 235t85 323.5q0 103 -32 201t-90.5 177t-135.5 139t-172 93t-196 33q-132 0 -251.5 -50.5t-205.5 -136.5t-136.5 -205.5t-50.5 -252.5zM418 682q0 182 108 295t281 113q139 0 235.5 -73.5t108.5 -187.5h-92q-20 86 -87 134.5t-167 48.5 q-132 0 -213.5 -90t-81.5 -238q0 -151 79.5 -240.5t213.5 -89.5q114 0 182.5 64t83.5 184h92q-12 -149 -110 -237.5t-250 -88.5q-172 0 -277.5 111.5t-105.5 294.5z" />
<glyph unicode="&#xaa;" horiz-adv-x="645" d="M45 700q0 120 121 164q33 13 63 18t154 17q54 4 73 18.5t19 49.5q0 63 -36.5 91.5t-116.5 28.5q-78 0 -116.5 -33t-45.5 -106h-86q4 103 70 157t186 54q87 0 145.5 -30t73.5 -82q10 -31 10 -97v-262q0 -52 5.5 -64t27.5 -12q11 0 35 9v-70q-38 -10 -66 -10 q-41 0 -61 21.5t-23 70.5q-79 -105 -225 -105q-95 0 -151 46.5t-56 125.5zM135 707q0 -48 37.5 -77.5t99.5 -29.5q88 0 144.5 49.5t56.5 126.5v80q-33 -13 -47.5 -16.5t-50.5 -8.5q-128 -15 -176 -34q-64 -28 -64 -90z" />
<glyph unicode="&#xab;" horiz-adv-x="706" d="M57 449v116l256 240v-125l-180 -174l180 -170v-131zM367 446v117l256 242v-125l-181 -174l181 -172v-127z" />
<glyph unicode="&#xac;" horiz-adv-x="1024" d="M68 449v112h886v-561h-125v449h-761z" />
<glyph unicode="&#xad;" horiz-adv-x="454" d="M0 451v108h455v-108h-455z" />
<glyph unicode="&#xae;" horiz-adv-x="1564" d="M70 682q0 196 96 360.5t262.5 259.5t364.5 95q188 0 350 -96.5t257 -261.5t95 -357q0 -145 -56.5 -277t-152 -227.5t-227.5 -152t-277 -56.5q-144 0 -276 57t-227.5 152.5t-152 227.5t-56.5 276zM147 682q0 -130 50.5 -249.5t136 -205.5t203 -137t245.5 -51 q172 0 318.5 86.5t231.5 235t85 323.5q0 103 -32 201t-90.5 177t-135.5 139t-172 93t-196 33q-132 0 -251.5 -50.5t-205.5 -136.5t-136.5 -205.5t-50.5 -252.5zM492 293v780h366q133 0 204 -55t71 -158q0 -137 -136 -188q71 -25 94 -70.5t29 -171.5q6 -66 13.5 -90.5 t29.5 -46.5h-108q-19 25 -25 113q-4 79 -12 120.5t-32.5 68t-61.5 33.5t-107 7h-233v-342h-92zM584 709h223q124 0 178.5 34t54.5 111q0 72 -50 106.5t-156 34.5h-250v-286z" />
<glyph unicode="&#xaf;" horiz-adv-x="1024" d="M244 1229v86h538v-86h-538z" />
<glyph unicode="&#xb0;" horiz-adv-x="716" d="M68 1069q0 121 85 206t207 85q121 0 206 -85.5t85 -207.5q0 -120 -85.5 -205.5t-205.5 -85.5q-121 0 -206.5 85.5t-85.5 207.5zM147 1069q0 -89 62.5 -152t150.5 -63q85 0 148 62t63 147q0 92 -62 155.5t-153 63.5q-85 0 -147 -63.5t-62 -149.5z" />
<glyph unicode="&#xb1;" d="M76 102v88h915v-88h-915zM76 721v88h413v414h89v-414h413v-88h-413v-414h-89v414h-413z" />
<glyph unicode="&#xb2;" horiz-adv-x="706" d="M66 547q7 112 60.5 179.5t205.5 158.5q119 76 161 125t42 116q0 70 -49.5 114t-127.5 44q-178 0 -184 -221h-88v18q0 128 74.5 202.5t201.5 74.5q119 0 191 -64t72 -170q0 -91 -56 -157t-217 -162q-95 -57 -133.5 -94.5t-52.5 -85.5h463v-78h-563z" />
<glyph unicode="&#xb3;" horiz-adv-x="706" d="M51 813h86v-14v-6q1 -86 57.5 -138.5t147.5 -52.5q88 0 145.5 49t57.5 123q0 78 -54.5 119t-158.5 41q-27 0 -47 -2v74l18 -2h23q89 0 138.5 36.5t49.5 102.5q0 64 -46.5 102.5t-123.5 38.5q-182 0 -188 -201h-86q5 134 75.5 204.5t202.5 70.5q115 0 185.5 -59t70.5 -154 q0 -120 -119 -170q72 -22 111 -72t39 -123q0 -112 -81 -182t-212 -70q-141 0 -217 74t-74 211z" />
<glyph unicode="&#xb4;" horiz-adv-x="1024" d="M424 1133l192 272h146l-242 -272h-96z" />
<glyph unicode="&#xb6;" d="M66 999q0 101 44 184.5t121 127.5q94 55 263 55h477v-92h-88v-1641h-117v1641h-191v-1641h-116v1008h-33q-158 0 -259 100.5t-101 257.5z" />
<glyph unicode="&#xb7;" horiz-adv-x="348" d="M96 403v205h158v-205h-158z" />
<glyph unicode="&#xb8;" horiz-adv-x="1024" d="M319 -350l27 57q73 -31 135 -31q54 0 85.5 23.5t31.5 62.5q0 35 -28 56.5t-72 21.5q-33 0 -80 -16l-29 29l115 147h63l-82 -106q53 6 70 6q67 0 108.5 -35t41.5 -92q0 -74 -56.5 -118t-152.5 -44q-80 0 -177 39z" />
<glyph unicode="&#xb9;" horiz-adv-x="706" d="M150 1135v67q93 2 135.5 13.5t64 40.5t35.5 94h72v-803h-92v588h-25h-82h-68h-40z" />
<glyph unicode="&#xba;" horiz-adv-x="696" d="M51 844q0 143 81.5 228t219.5 85q132 0 211.5 -86t79.5 -229t-80 -227.5t-215 -84.5t-216 85.5t-81 228.5zM141 844q0 -111 56.5 -176.5t152.5 -65.5q94 0 149.5 66t55.5 176q0 109 -56 175t-147 66q-97 0 -154 -65.5t-57 -175.5z" />
<glyph unicode="&#xbb;" horiz-adv-x="706" d="M84 207v125l180 174l-180 172v125l256 -238v-116zM391 205v127l182 172l-182 170v131l258 -244v-115z" />
<glyph unicode="&#xbc;" horiz-adv-x="1714" d="M137 1135v67q71 2 109 7t66 22t40 43.5t23 75.5h71v-803h-92v588h-24h-84h-68h-41zM406 0l813 1341h88l-809 -1341h-92zM1069 195v75l393 533h74v-537h125v-71h-125v-195h-84v195h-383zM1151 266h301v414z" />
<glyph unicode="&#xbd;" horiz-adv-x="1714" d="M137 1135v67q71 2 109 7t66 22t40 43.5t23 75.5h71v-803h-92v588h-24h-84h-68h-41zM406 0l813 1341h88l-809 -1341h-92zM1083 0q7 112 61.5 180t205.5 158q118 75 160 125.5t42 116.5q0 70 -49 113.5t-127 43.5q-178 0 -184 -219h-88v19q0 127 74 201.5t202 74.5 q118 0 190 -63.5t72 -167.5q0 -93 -55.5 -159.5t-216.5 -164.5q-96 -58 -134.5 -94.5t-51.5 -85.5h463v-78h-564z" />
<glyph unicode="&#xbe;" horiz-adv-x="1714" d="M41 813h86v-14v-6q1 -86 57.5 -138.5t147.5 -52.5q88 0 145.5 49t57.5 123q0 78 -54.5 119t-158.5 41q-28 0 -48 -2v74l19 -2h22q89 0 139 36.5t50 102.5q0 64 -46.5 102.5t-123.5 38.5q-183 0 -189 -201h-86q5 134 76 204.5t203 70.5q115 0 185.5 -59t70.5 -154 q0 -120 -119 -170q72 -22 111 -72t39 -123q0 -112 -81 -182t-212 -70q-141 0 -217 74t-74 211zM408 0l811 1341h90l-811 -1341h-90zM1071 195v75l393 533h74v-537h125v-71h-125v-195h-84v195h-383zM1153 266h301v414z" />
<glyph unicode="&#xbf;" horiz-adv-x="940" d="M68 326q0 131 75 231q39 49 154 156q77 71 99 127.5t22 185.5h114q-1 -63 -2.5 -98t-11 -74.5t-20 -62t-39.5 -59.5t-59 -67t-87 -85q-63 -63 -91.5 -121.5t-28.5 -124.5q0 -114 76.5 -185t199.5 -71q177 0 256 139q24 40 34 84t15 123h115q-3 -92 -18 -153.5t-48 -114.5 q-54 -88 -147.5 -136.5t-210.5 -48.5q-177 0 -287 98.5t-110 256.5zM406 1176v190h143v-190h-143z" />
<glyph unicode="&#xc0;" horiz-adv-x="1263" d="M10 0l551 1370h146l544 -1370h-145l-164 430h-625l-167 -430h-140zM356 535h547l-272 698zM358 1737h158l211 -258h-100z" />
<glyph unicode="&#xc1;" horiz-adv-x="1263" d="M10 0l551 1370h146l544 -1370h-145l-164 430h-625l-167 -430h-140zM356 535h547l-272 698zM541 1479l213 258h155l-268 -258h-100z" />
<glyph unicode="&#xc2;" horiz-adv-x="1263" d="M10 0l551 1370h146l544 -1370h-145l-164 430h-625l-167 -430h-140zM332 1479l235 258h125l238 -258h-121l-182 186l-187 -186h-108zM356 535h547l-272 698z" />
<glyph unicode="&#xc3;" horiz-adv-x="1263" d="M10 0l551 1370h146l544 -1370h-145l-164 430h-625l-167 -430h-140zM342 1509q15 89 60.5 137t115.5 48q54 0 127 -37q69 -35 89.5 -42t45.5 -7q68 0 92 94h74q-35 -184 -168 -184q-35 0 -69 12t-129 57q-39 17 -70 17q-37 0 -59.5 -22.5t-36.5 -72.5h-72zM356 535h547 l-272 698z" />
<glyph unicode="&#xc4;" horiz-adv-x="1263" d="M10 0l551 1370h146l544 -1370h-145l-164 430h-625l-167 -430h-140zM356 535h547l-272 698zM360 1509v191h129v-191h-129zM774 1509v191h129v-191h-129z" />
<glyph unicode="&#xc5;" horiz-adv-x="1263" d="M10 0l551 1370h146l544 -1370h-145l-164 430h-625l-167 -430h-140zM356 535h547l-272 698zM432 1640q0 82 59 139.5t142 57.5q80 0 137 -58.5t57 -140.5t-57 -140t-139 -58q-83 0 -141 58.5t-58 141.5zM512 1638q0 -49 34.5 -83.5t84.5 -34.5q48 0 82.5 34.5t34.5 83.5 q0 47 -35 83t-82 36q-49 0 -84 -34.5t-35 -84.5z" />
<glyph unicode="&#xc6;" horiz-adv-x="1714" d="M-39 0l713 1366h987v-113h-705v-489h658v-113h-658v-538h713v-113h-842v446h-489l-227 -446h-150zM391 555h436v698h-79z" />
<glyph unicode="&#xc7;" horiz-adv-x="1333" d="M72 678q0 321 176 520t461 199q221 0 373 -120t184 -321h-129q-32 148 -150 238t-280 90q-226 0 -366 -166.5t-140 -435.5q0 -272 136.5 -437t360.5 -165q191 0 317.5 122t139.5 320h129q-22 -252 -181 -402.5t-403 -150.5l-63 -84q56 9 70 9q63 0 106 -35.5t43 -89.5 q0 -72 -58.5 -118t-150.5 -46q-80 0 -180 39l27 57q76 -31 139 -31q49 0 80.5 25t31.5 63q0 33 -27 54.5t-69 21.5q-34 0 -82 -18l-30 28l96 129q-257 19 -409 210t-152 495z" />
<glyph unicode="&#xc8;" horiz-adv-x="1126" d="M129 0v1366h948v-113h-819v-489h766v-113h-766v-538h827v-113h-956zM350 1737h158l211 -258h-101z" />
<glyph unicode="&#xc9;" horiz-adv-x="1126" d="M129 0v1366h948v-113h-819v-489h766v-113h-766v-538h827v-113h-956zM487 1479l213 258h156l-268 -258h-101z" />
<glyph unicode="&#xca;" horiz-adv-x="1126" d="M129 0v1366h948v-113h-819v-489h766v-113h-766v-538h827v-113h-956zM307 1479l236 258h125l237 -258h-121l-182 186l-186 -186h-109z" />
<glyph unicode="&#xcb;" horiz-adv-x="1126" d="M129 0v1366h948v-113h-819v-489h766v-113h-766v-538h827v-113h-956zM332 1509v191h129v-191h-129zM745 1509v191h129v-191h-129z" />
<glyph unicode="&#xcc;" horiz-adv-x="387" d="M-45 1737h149l179 -258h-93zM131 0v1366h129v-1366h-129z" />
<glyph unicode="&#xcd;" horiz-adv-x="387" d="M104 1479l179 258h149l-233 -258h-95zM129 0v1366h129v-1366h-129z" />
<glyph unicode="&#xce;" horiz-adv-x="387" d="M-66 1479l195 258h125l190 -258h-114l-142 186l-145 -186h-109zM127 0v1366h129v-1366h-129z" />
<glyph unicode="&#xcf;" horiz-adv-x="387" d="M4 1509v191h129v-191h-129zM129 0v1366h129v-1366h-129zM254 1509v191h129v-191h-129z" />
<glyph unicode="&#xd0;" horiz-adv-x="1302" d="M-14 664v108h143v594h475q148 0 249 -32t183 -105q96 -88 146.5 -221.5t50.5 -298.5q0 -361 -193 -557q-82 -83 -178.5 -117.5t-247.5 -34.5h-485v664h-143zM258 113h326q141 0 222 25.5t146 90.5q152 158 152 473q0 280 -146 426q-64 66 -148 95.5t-206 29.5h-346v-481 h410v-108h-410v-551z" />
<glyph unicode="&#xd1;" horiz-adv-x="1333" d="M129 0v1366h145l805 -1173v1173h125v-1366h-145l-805 1165v-1165h-125zM383 1509q15 89 60.5 137t115.5 48q54 0 127 -37q69 -35 89.5 -42t45.5 -7q68 0 92 94h74q-35 -184 -168 -184q-35 0 -69 12t-129 57q-39 17 -70 17q-37 0 -59.5 -22.5t-36.5 -72.5h-72z" />
<glyph unicode="&#xd2;" horiz-adv-x="1427" d="M72 682q0 322 179 518.5t472 196.5q184 0 329 -91t225.5 -254.5t80.5 -371.5q0 -210 -80.5 -371.5t-227.5 -250.5t-337 -89q-287 0 -464 196.5t-177 516.5zM201 686q0 -271 142 -437.5t372 -166.5t372 165t142 433q0 267 -142 435.5t-366 168.5q-235 0 -377.5 -164 t-142.5 -434zM461 1737h157l211 -258h-100z" />
<glyph unicode="&#xd3;" horiz-adv-x="1427" d="M72 682q0 322 179 518.5t472 196.5q184 0 329 -91t225.5 -254.5t80.5 -371.5q0 -210 -80.5 -371.5t-227.5 -250.5t-337 -89q-287 0 -464 196.5t-177 516.5zM201 686q0 -271 142 -437.5t372 -166.5t372 165t142 433q0 267 -142 435.5t-366 168.5q-235 0 -377.5 -164 t-142.5 -434zM598 1479l213 258h156l-269 -258h-100z" />
<glyph unicode="&#xd4;" horiz-adv-x="1427" d="M72 682q0 322 179 518.5t472 196.5q184 0 329 -91t225.5 -254.5t80.5 -371.5q0 -210 -80.5 -371.5t-227.5 -250.5t-337 -89q-287 0 -464 196.5t-177 516.5zM201 686q0 -271 142 -437.5t372 -166.5t372 165t142 433q0 267 -142 435.5t-366 168.5q-235 0 -377.5 -164 t-142.5 -434zM416 1479l235 258h125l238 -258h-121l-182 186l-187 -186h-108z" />
<glyph unicode="&#xd5;" horiz-adv-x="1427" d="M72 682q0 322 179 518.5t472 196.5q184 0 329 -91t225.5 -254.5t80.5 -371.5q0 -210 -80.5 -371.5t-227.5 -250.5t-337 -89q-287 0 -464 196.5t-177 516.5zM201 686q0 -271 142 -437.5t372 -166.5t372 165t142 433q0 267 -142 435.5t-366 168.5q-235 0 -377.5 -164 t-142.5 -434zM432 1509q15 89 60.5 137t115.5 48q54 0 127 -37q69 -35 89.5 -42t45.5 -7q69 0 93 94h73q-35 -184 -168 -184q-35 0 -69 12t-129 57q-39 17 -70 17q-37 0 -59.5 -22.5t-36.5 -72.5h-72z" />
<glyph unicode="&#xd6;" horiz-adv-x="1427" d="M72 682q0 322 179 518.5t472 196.5q184 0 329 -91t225.5 -254.5t80.5 -371.5q0 -210 -80.5 -371.5t-227.5 -250.5t-337 -89q-287 0 -464 196.5t-177 516.5zM201 686q0 -271 142 -437.5t372 -166.5t372 165t142 433q0 267 -142 435.5t-366 168.5q-235 0 -377.5 -164 t-142.5 -434zM444 1509v191h129v-191h-129zM858 1509v191h129v-191h-129z" />
<glyph unicode="&#xd7;" d="M145 336l326 326l-326 327l64 62l326 -326l325 326l64 -62l-326 -327l326 -326l-64 -64l-325 328l-326 -328z" />
<glyph unicode="&#xd8;" horiz-adv-x="1427" d="M72 39l147 164q-147 198 -147 479q0 210 80.5 372.5t226.5 252.5t334 90q259 0 434 -166l139 158l70 -64l-146 -166q148 -197 148 -479q0 -210 -80.5 -371.5t-227.5 -250.5t-337 -89q-254 0 -428 162l-144 -154zM201 688q0 -236 108 -395l752 854q-79 72 -161.5 104.5 t-184.5 32.5q-229 0 -371.5 -165.5t-142.5 -430.5zM371 215q86 -72 165 -102.5t179 -30.5q230 0 372 165.5t142 432.5q0 233 -111 395z" />
<glyph unicode="&#xd9;" horiz-adv-x="1277" d="M109 551v815h129v-819q0 -121 14 -190.5t49 -125.5q99 -153 348 -153q239 0 330 147q35 55 49 128t14 196v817h129v-819q0 -146 -18 -226t-68 -155q-135 -197 -438 -197q-335 0 -467 221q-40 66 -55.5 146.5t-15.5 214.5zM385 1737h158l211 -258h-101z" />
<glyph unicode="&#xda;" horiz-adv-x="1277" d="M109 551v815h129v-819q0 -121 14 -190.5t49 -125.5q99 -153 348 -153q239 0 330 147q35 55 49 128t14 196v817h129v-819q0 -146 -18 -226t-68 -155q-135 -197 -438 -197q-335 0 -467 221q-40 66 -55.5 146.5t-15.5 214.5zM516 1479l213 258h156l-269 -258h-100z" />
<glyph unicode="&#xdb;" horiz-adv-x="1277" d="M109 551v815h129v-819q0 -121 14 -190.5t49 -125.5q99 -153 348 -153q239 0 330 147q35 55 49 128t14 196v817h129v-819q0 -146 -18 -226t-68 -155q-135 -197 -438 -197q-335 0 -467 221q-40 66 -55.5 146.5t-15.5 214.5zM342 1479l236 258h124l238 -258h-121l-182 186 l-186 -186h-109z" />
<glyph unicode="&#xdc;" horiz-adv-x="1277" d="M109 551v815h129v-819q0 -121 14 -190.5t49 -125.5q99 -153 348 -153q239 0 330 147q35 55 49 128t14 196v817h129v-819q0 -146 -18 -226t-68 -155q-135 -197 -438 -197q-335 0 -467 221q-40 66 -55.5 146.5t-15.5 214.5zM369 1509v191h129v-191h-129zM782 1509v191h129 v-191h-129z" />
<glyph unicode="&#xdd;" horiz-adv-x="1150" d="M-29 1366h158l453 -682l452 682h150l-541 -801v-565h-129v565zM461 1479l213 258h155l-268 -258h-100z" />
<glyph unicode="&#xde;" horiz-adv-x="1175" d="M129 0v1366h129v-205h416q115 0 184.5 -15t126.5 -52q156 -106 156 -318q0 -214 -152 -323q-57 -41 -126.5 -58.5t-174.5 -17.5h-430v-377h-129zM258 489h395q89 0 142 11t94 37q123 75 123 233q0 159 -119 231q-43 28 -95 38t-153 10h-387v-560z" />
<glyph unicode="&#xdf;" horiz-adv-x="1011" d="M119 0v936q0 134 10.5 195t42.5 110q46 72 132 112t194 40q172 0 275.5 -92t103.5 -244q0 -112 -57.5 -187.5t-160.5 -101.5q135 -19 210 -112t75 -244q0 -194 -116.5 -310t-311.5 -116q-6 0 -92 4v98q66 -4 70 -4q158 0 243.5 84.5t85.5 239.5q0 157 -89.5 230 t-284.5 73q-15 0 -25 -2v98q79 0 122 7t83 26q61 29 94 84t33 129q0 106 -72.5 172.5t-189.5 66.5q-145 0 -205 -88q-28 -37 -38.5 -87.5t-10.5 -141.5v-975h-121z" />
<glyph unicode="&#xe0;" horiz-adv-x="964" d="M43 252q0 195 186 266q52 21 98 28.5t248 26.5q89 9 122.5 36.5t33.5 90.5q0 111 -62.5 163t-195.5 52q-126 0 -191 -56t-77 -177h-117q7 160 110.5 246t286.5 86q135 0 229.5 -48.5t119.5 -131.5q14 -55 14 -162v-441q0 -92 11.5 -115.5t55.5 -23.5q19 0 46 8v-94 q-43 -14 -97 -14q-69 0 -98 41t-29 139q-66 -104 -155.5 -152.5t-216.5 -48.5q-150 0 -236 75t-86 206zM164 262q0 -87 63 -139.5t166 -52.5q148 0 243 86.5t95 220.5v162q-30 -27 -75 -38.5t-197 -31.5q-158 -22 -226.5 -70t-68.5 -137zM258 1405h148l190 -272h-96z" />
<glyph unicode="&#xe1;" horiz-adv-x="964" d="M43 252q0 195 186 266q52 21 98 28.5t248 26.5q89 9 122.5 36.5t33.5 90.5q0 111 -62.5 163t-195.5 52q-126 0 -191 -56t-77 -177h-117q7 160 110.5 246t286.5 86q135 0 229.5 -48.5t119.5 -131.5q14 -55 14 -162v-441q0 -92 11.5 -115.5t55.5 -23.5q19 0 46 8v-94 q-43 -14 -97 -14q-69 0 -98 41t-29 139q-66 -104 -155.5 -152.5t-216.5 -48.5q-150 0 -236 75t-86 206zM164 262q0 -87 63 -139.5t166 -52.5q148 0 243 86.5t95 220.5v162q-30 -27 -75 -38.5t-197 -31.5q-158 -22 -226.5 -70t-68.5 -137zM379 1133l192 272h146l-242 -272 h-96z" />
<glyph unicode="&#xe2;" horiz-adv-x="964" d="M43 252q0 195 186 266q52 21 98 28.5t248 26.5q89 9 122.5 36.5t33.5 90.5q0 111 -62.5 163t-195.5 52q-126 0 -191 -56t-77 -177h-117q7 160 110.5 246t286.5 86q135 0 229.5 -48.5t119.5 -131.5q14 -55 14 -162v-441q0 -92 11.5 -115.5t55.5 -23.5q19 0 46 8v-94 q-43 -14 -97 -14q-69 0 -98 41t-29 139q-66 -104 -155.5 -152.5t-216.5 -48.5q-150 0 -236 75t-86 206zM164 262q0 -87 63 -139.5t166 -52.5q148 0 243 86.5t95 220.5v162q-30 -27 -75 -38.5t-197 -31.5q-158 -22 -226.5 -70t-68.5 -137zM223 1133l203 272h121l205 -272 h-119l-150 202l-153 -202h-107z" />
<glyph unicode="&#xe3;" horiz-adv-x="964" d="M43 252q0 195 186 266q52 21 98 28.5t248 26.5q89 9 122.5 36.5t33.5 90.5q0 111 -62.5 163t-195.5 52q-126 0 -191 -56t-77 -177h-117q7 160 110.5 246t286.5 86q135 0 229.5 -48.5t119.5 -131.5q14 -55 14 -162v-441q0 -92 11.5 -115.5t55.5 -23.5q19 0 46 8v-94 q-43 -14 -97 -14q-69 0 -98 41t-29 139q-66 -104 -155.5 -152.5t-216.5 -48.5q-150 0 -236 75t-86 206zM164 262q0 -87 63 -139.5t166 -52.5q148 0 243 86.5t95 220.5v162q-30 -27 -75 -38.5t-197 -31.5q-158 -22 -226.5 -70t-68.5 -137zM215 1174q13 92 54 140t104 48 q47 0 114 -37q64 -36 82 -43.5t41 -7.5q55 0 76 94h74q-35 -186 -152 -186q-32 0 -62 12t-118 59q-31 17 -61 17q-32 0 -51 -22.5t-31 -73.5h-70z" />
<glyph unicode="&#xe4;" horiz-adv-x="964" d="M43 252q0 195 186 266q52 21 98 28.5t248 26.5q89 9 122.5 36.5t33.5 90.5q0 111 -62.5 163t-195.5 52q-126 0 -191 -56t-77 -177h-117q7 160 110.5 246t286.5 86q135 0 229.5 -48.5t119.5 -131.5q14 -55 14 -162v-441q0 -92 11.5 -115.5t55.5 -23.5q19 0 46 8v-94 q-43 -14 -97 -14q-69 0 -98 41t-29 139q-66 -104 -155.5 -152.5t-216.5 -48.5q-150 0 -236 75t-86 206zM164 262q0 -87 63 -139.5t166 -52.5q148 0 243 86.5t95 220.5v162q-30 -27 -75 -38.5t-197 -31.5q-158 -22 -226.5 -70t-68.5 -137zM254 1174v194h123v-194h-123z M600 1174v194h123v-194h-123z" />
<glyph unicode="&#xe5;" horiz-adv-x="964" d="M43 252q0 195 186 266q52 21 98 28.5t248 26.5q89 9 122.5 36.5t33.5 90.5q0 111 -62.5 163t-195.5 52q-126 0 -191 -56t-77 -177h-117q7 160 110.5 246t286.5 86q135 0 229.5 -48.5t119.5 -131.5q14 -55 14 -162v-441q0 -92 11.5 -115.5t55.5 -23.5q19 0 46 8v-94 q-43 -14 -97 -14q-69 0 -98 41t-29 139q-66 -104 -155.5 -152.5t-216.5 -48.5q-150 0 -236 75t-86 206zM164 262q0 -87 63 -139.5t166 -52.5q148 0 243 86.5t95 220.5v162q-30 -27 -75 -38.5t-197 -31.5q-158 -22 -226.5 -70t-68.5 -137zM297 1286q0 78 57 133.5t138 55.5 q77 0 132.5 -56.5t55.5 -134.5t-56.5 -134t-134.5 -56q-79 0 -135.5 56t-56.5 136zM377 1284q0 -46 32.5 -78t79.5 -32q45 0 78 32.5t33 77.5q0 44 -33.5 77.5t-77.5 33.5q-46 0 -79 -32.5t-33 -78.5z" />
<glyph unicode="&#xe6;" horiz-adv-x="1646" d="M41 260q0 140 100 217q79 64 295 84q73 7 115.5 12t79 13t53 15.5t28.5 22.5t14.5 31t2.5 43q0 109 -62.5 162t-191.5 53q-133 0 -200 -56.5t-78 -178.5h-115q15 166 116 251t281 85q177 0 262 -76q26 -22 41.5 -49t30.5 -78q46 100 133 151.5t209 51.5q201 0 317.5 -135 t116.5 -367q0 -29 -2 -49h-747v-12q0 -179 85.5 -279t237.5 -100q120 0 193 61.5t104 188.5h117q-34 -166 -146 -258.5t-280 -92.5q-136 0 -229.5 63t-137.5 185q-46 -114 -161 -183t-261 -69q-145 0 -233 80.5t-88 212.5zM164 266q0 -95 62 -150t169 -55q74 0 142 30.5 t118 84.5q40 46 56 100t16 142v117q-26 -23 -61.5 -34t-114.5 -18q-197 -19 -256 -41q-131 -45 -131 -176zM838 563h628q-3 161 -87 255.5t-224 94.5q-86 0 -156 -39t-110 -110q-40 -70 -51 -201z" />
<glyph unicode="&#xe7;" horiz-adv-x="985" d="M68 483q0 242 124.5 386.5t333.5 144.5q171 0 278.5 -90t127.5 -250h-123q-23 117 -94.5 178t-186.5 61q-155 0 -247.5 -114t-92.5 -307q0 -192 89.5 -306t240.5 -114q123 0 201.5 73.5t97.5 206.5h121q-20 -177 -139.5 -283t-288.5 -98l-59 -77q50 6 69 6 q67 0 108.5 -35t41.5 -92q0 -74 -56.5 -118t-152.5 -44q-81 0 -178 39l26 57q76 -31 137 -31q52 0 84.5 24t32.5 62q0 35 -28 56.5t-74 21.5q-34 0 -78 -16l-29 29l95 122q-174 23 -277.5 161t-103.5 347z" />
<glyph unicode="&#xe8;" horiz-adv-x="1011" d="M68 481q0 234 126 383.5t324 149.5q126 0 226 -65t155 -183q53 -115 53 -303h-764q4 -187 91.5 -289t242.5 -102q118 0 195 64.5t108 189.5h115q-32 -170 -141.5 -262.5t-278.5 -92.5q-204 0 -328 140t-124 370zM190 563h639q-8 161 -92.5 255.5t-222.5 94.5 q-137 0 -220.5 -90t-103.5 -260zM283 1405h147l191 -272h-97z" />
<glyph unicode="&#xe9;" horiz-adv-x="1011" d="M68 481q0 234 126 383.5t324 149.5q126 0 226 -65t155 -183q53 -115 53 -303h-764q4 -187 91.5 -289t242.5 -102q118 0 195 64.5t108 189.5h115q-32 -170 -141.5 -262.5t-278.5 -92.5q-204 0 -328 140t-124 370zM190 563h639q-8 161 -92.5 255.5t-222.5 94.5 q-137 0 -220.5 -90t-103.5 -260zM418 1133l192 272h146l-242 -272h-96z" />
<glyph unicode="&#xea;" horiz-adv-x="1011" d="M68 481q0 234 126 383.5t324 149.5q126 0 226 -65t155 -183q53 -115 53 -303h-764q4 -187 91.5 -289t242.5 -102q118 0 195 64.5t108 189.5h115q-32 -170 -141.5 -262.5t-278.5 -92.5q-204 0 -328 140t-124 370zM190 563h639q-8 161 -92.5 255.5t-222.5 94.5 q-137 0 -220.5 -90t-103.5 -260zM262 1133l203 272h121l205 -272h-119l-150 202l-153 -202h-107z" />
<glyph unicode="&#xeb;" horiz-adv-x="1011" d="M68 481q0 234 126 383.5t324 149.5q126 0 226 -65t155 -183q53 -115 53 -303h-764q4 -187 91.5 -289t242.5 -102q118 0 195 64.5t108 189.5h115q-32 -170 -141.5 -262.5t-278.5 -92.5q-204 0 -328 140t-124 370zM190 563h639q-8 161 -92.5 255.5t-222.5 94.5 q-137 0 -220.5 -90t-103.5 -260zM285 1174v194h123v-194h-123zM631 1174v194h123v-194h-123z" />
<glyph unicode="&#xec;" horiz-adv-x="354" d="M-39 1405h139l158 -272h-96zM117 0v985h121v-985h-121z" />
<glyph unicode="&#xed;" horiz-adv-x="354" d="M96 1133l158 272h139l-200 -272h-97zM117 0v985h121v-985h-121z" />
<glyph unicode="&#xee;" horiz-adv-x="354" d="M-43 1133l162 272h121l157 -272h-112l-109 196l-113 -196h-106zM119 0v985h121v-985h-121z" />
<glyph unicode="&#xef;" horiz-adv-x="354" d="M-2 1174v194h123v-194h-123zM117 0v985h121v-985h-121zM233 1174v194h123v-194h-123z" />
<glyph unicode="&#xf0;" horiz-adv-x="1069" d="M68 494q0 232 127.5 376t334.5 144q60 0 96 -11.5t93 -48.5q-47 86 -127 207l-152 -74l-41 72l146 78l-92 127l73 47l109 -129l149 74l47 -72l-143 -74q170 -242 241.5 -406t71.5 -315q0 -236 -126 -377t-338 -141t-340.5 143.5t-128.5 379.5zM190 492q0 -192 94.5 -306 t254.5 -114q157 0 249.5 114t92.5 306q0 190 -93 305.5t-247 115.5q-161 0 -256 -114t-95 -307z" />
<glyph unicode="&#xf1;" horiz-adv-x="1032" d="M117 0v985h112v-184q45 75 82 110q103 103 269 103q95 0 172 -36t118 -99q29 -45 40.5 -97.5t11.5 -148.5v-633h-121v596q0 92 -9.5 141t-33.5 82q-29 42 -83.5 66t-121.5 24q-91 0 -162 -40.5t-108 -112.5q-26 -49 -35.5 -105.5t-9.5 -154.5v-496h-121zM231 1174 q13 92 54 140t104 48q48 0 115 -37q64 -36 82 -43.5t41 -7.5q54 0 75 94h74q-35 -186 -151 -186q-32 0 -63 12t-118 59q-31 17 -61 17q-32 0 -51 -22.5t-31 -73.5h-70z" />
<glyph unicode="&#xf2;" horiz-adv-x="1069" d="M68 492q0 239 128.5 380.5t346.5 141.5q209 0 333.5 -143.5t124.5 -381.5t-125 -378t-339 -140q-213 0 -341 142t-128 379zM190 492q0 -192 94.5 -306t254.5 -114q157 0 249.5 114t92.5 306q0 190 -93 305.5t-247 115.5q-161 0 -256 -114t-95 -307zM297 1405h147 l191 -272h-96z" />
<glyph unicode="&#xf3;" horiz-adv-x="1069" d="M68 492q0 239 128.5 380.5t346.5 141.5q209 0 333.5 -143.5t124.5 -381.5t-125 -378t-339 -140q-213 0 -341 142t-128 379zM190 492q0 -192 94.5 -306t254.5 -114q157 0 249.5 114t92.5 306q0 190 -93 305.5t-247 115.5q-161 0 -256 -114t-95 -307zM434 1133l193 272h145 l-242 -272h-96z" />
<glyph unicode="&#xf4;" horiz-adv-x="1069" d="M68 492q0 239 128.5 380.5t346.5 141.5q209 0 333.5 -143.5t124.5 -381.5t-125 -378t-339 -140q-213 0 -341 142t-128 379zM190 492q0 -192 94.5 -306t254.5 -114q157 0 249.5 114t92.5 306q0 190 -93 305.5t-247 115.5q-161 0 -256 -114t-95 -307zM270 1133l203 272h121 l205 -272h-119l-150 202l-153 -202h-107z" />
<glyph unicode="&#xf5;" horiz-adv-x="1069" d="M68 492q0 239 128.5 380.5t346.5 141.5q209 0 333.5 -143.5t124.5 -381.5t-125 -378t-339 -140q-213 0 -341 142t-128 379zM190 492q0 -192 94.5 -306t254.5 -114q157 0 249.5 114t92.5 306q0 190 -93 305.5t-247 115.5q-161 0 -256 -114t-95 -307zM276 1174 q13 92 54 140t104 48q48 0 115 -37q64 -36 82 -43.5t41 -7.5q55 0 76 94h73q-35 -186 -151 -186q-32 0 -63 12t-118 59q-31 17 -61 17q-32 0 -51 -22.5t-31 -73.5h-70z" />
<glyph unicode="&#xf6;" horiz-adv-x="1069" d="M68 492q0 239 128.5 380.5t346.5 141.5q209 0 333.5 -143.5t124.5 -381.5t-125 -378t-339 -140q-213 0 -341 142t-128 379zM190 492q0 -192 94.5 -306t254.5 -114q157 0 249.5 114t92.5 306q0 190 -93 305.5t-247 115.5q-161 0 -256 -114t-95 -307zM301 1174v194h123 v-194h-123zM647 1174v194h123v-194h-123z" />
<glyph unicode="&#xf7;" d="M76 618v89h915v-89h-915zM444 365q0 38 27 64t66 26q35 0 61.5 -26.5t26.5 -63.5t-26.5 -64t-63.5 -27t-64 27t-27 64zM444 961q0 38 27 64t66 26q35 0 61.5 -26.5t26.5 -63.5t-26.5 -64t-63.5 -27t-64 27t-27 64z" />
<glyph unicode="&#xf8;" horiz-adv-x="1101" d="M63 27l117 125q-96 144 -96 342q0 235 127.5 377.5t339.5 142.5q192 0 317 -119l105 113l63 -58l-110 -121q50 -79 71 -156t21 -181q0 -239 -125.5 -380t-339.5 -141q-188 0 -317 115l-109 -117zM205 498q0 -158 59 -262l527 581q-102 96 -240 96q-155 0 -250.5 -114.5 t-95.5 -300.5zM315 166q56 -51 112.5 -72.5t127.5 -21.5q157 0 249.5 114t92.5 306q0 143 -59 253z" />
<glyph unicode="&#xf9;" horiz-adv-x="1030" d="M111 350v635h120v-584q0 -133 25 -198q23 -57 84.5 -92t138.5 -35q79 0 147 36t109 101q58 96 58 266v506h118v-985h-112v184q-49 -103 -138.5 -158t-205.5 -55q-83 0 -158 32.5t-119 86.5q-67 87 -67 260zM270 1405h148l190 -272h-96z" />
<glyph unicode="&#xfa;" horiz-adv-x="1030" d="M111 350v635h120v-584q0 -133 25 -198q23 -57 84.5 -92t138.5 -35q79 0 147 36t109 101q58 96 58 266v506h118v-985h-112v184q-49 -103 -138.5 -158t-205.5 -55q-83 0 -158 32.5t-119 86.5q-67 87 -67 260zM399 1133l193 272h145l-241 -272h-97z" />
<glyph unicode="&#xfb;" horiz-adv-x="1030" d="M111 350v635h120v-584q0 -133 25 -198q23 -57 84.5 -92t138.5 -35q79 0 147 36t109 101q58 96 58 266v506h118v-985h-112v184q-49 -103 -138.5 -158t-205.5 -55q-83 0 -158 32.5t-119 86.5q-67 87 -67 260zM246 1133l203 272h120l205 -272h-119l-149 202l-154 -202h-106z " />
<glyph unicode="&#xfc;" horiz-adv-x="1030" d="M111 350v635h120v-584q0 -133 25 -198q23 -57 84.5 -92t138.5 -35q79 0 147 36t109 101q58 96 58 266v506h118v-985h-112v184q-49 -103 -138.5 -158t-205.5 -55q-83 0 -158 32.5t-119 86.5q-67 87 -67 260zM279 1174v194h122v-194h-122zM625 1174v194h123v-194h-123z" />
<glyph unicode="&#xfd;" horiz-adv-x="860" d="M-12 985h133l325 -829l304 829h122l-387 -1024q-73 -192 -108 -244q-62 -92 -182 -92q-39 0 -80 6l-27 2v107q49 -12 86 -12q56 0 93.5 33.5t66.5 109.5q33 83 35 88q18 37 18 41t-2 6zM322 1133l192 272h145l-241 -272h-96z" />
<glyph unicode="&#xfe;" horiz-adv-x="1097" d="M119 -367v1733h121v-565q44 103 135.5 158t216.5 55q201 0 320.5 -140.5t119.5 -375.5q0 -239 -120 -383t-320 -144q-124 0 -216 59t-136 167v-564h-121zM238 494q0 -193 92.5 -307.5t247.5 -114.5q152 0 242.5 115t90.5 307q0 191 -90 305t-241 114q-160 0 -251 -112 t-91 -307z" />
<glyph unicode="&#xff;" horiz-adv-x="860" d="M-12 985h133l325 -829l304 829h122l-387 -1024q-73 -192 -108 -244q-62 -92 -182 -92q-39 0 -80 6l-27 2v107q49 -12 86 -12q56 0 93.5 33.5t66.5 109.5q33 83 35 88q18 37 18 41t-2 6zM197 1174v194h122v-194h-122zM543 1174v194h123v-194h-123z" />
<glyph unicode="&#x152;" horiz-adv-x="2050" d="M72 676q0 210 82 374t229.5 255.5t335.5 91.5q130 0 242 -47q35 -17 50 -27t68 -55q1 -1 4 -3t8 -5.5t9 -6.5v113h899v-113h-778v-489h706v-113h-706v-538h786v-113h-907v139q-85 -88 -179 -129t-214 -41q-183 0 -328 90.5t-226 251.5t-81 365zM201 678 q0 -264 143.5 -430t372.5 -166q195 0 311 119q64 64 64 127v716q0 40 -17.5 71.5t-60.5 68.5q-112 100 -283 100q-237 0 -383.5 -167.5t-146.5 -438.5z" />
<glyph unicode="&#x153;" horiz-adv-x="1716" d="M68 489q0 242 119 383.5t321 141.5q269 0 356 -240q54 123 142.5 181.5t220.5 58.5q148 0 252 -77t145 -218q17 -53 23 -107t8 -149h-740v-33q0 -158 89 -258t227 -100q226 0 299 250h117q-40 -169 -150 -260t-274 -91q-281 0 -363 252q-40 -123 -132.5 -187.5 t-227.5 -64.5q-198 0 -315 140t-117 378zM188 487q0 -193 85 -304t233 -111q146 0 225.5 112.5t79.5 315.5q0 197 -79 305t-224 108q-151 0 -235.5 -112.5t-84.5 -313.5zM913 563h621q-8 141 -53 213q-43 65 -111 101t-147 36q-85 0 -154.5 -40.5t-107.5 -112.5 q-40 -76 -48 -197z" />
<glyph unicode="&#x178;" horiz-adv-x="1150" d="M-29 1366h158l453 -682l452 682h150l-541 -801v-565h-129v565zM305 1509v191h129v-191h-129zM719 1509v191h129v-191h-129z" />
<glyph unicode="&#x2c6;" horiz-adv-x="1024" d="M248 1133l203 272h120l205 -272h-119l-149 202l-154 -202h-106z" />
<glyph unicode="&#x2dc;" horiz-adv-x="1024" d="M240 1174q13 92 53.5 140t103.5 48q48 0 115 -37q64 -36 82 -43.5t41 -7.5q55 0 76 94h73q-35 -186 -151 -186q-32 0 -62 12t-118 59q-31 17 -62 17q-32 0 -51 -22.5t-31 -73.5h-69z" />
<glyph unicode="&#x2000;" horiz-adv-x="918" />
<glyph unicode="&#x2001;" horiz-adv-x="1837" />
<glyph unicode="&#x2002;" horiz-adv-x="918" />
<glyph unicode="&#x2003;" horiz-adv-x="1837" />
<glyph unicode="&#x2004;" horiz-adv-x="612" />
<glyph unicode="&#x2005;" horiz-adv-x="459" />
<glyph unicode="&#x2006;" horiz-adv-x="306" />
<glyph unicode="&#x2007;" horiz-adv-x="306" />
<glyph unicode="&#x2008;" horiz-adv-x="229" />
<glyph unicode="&#x2009;" horiz-adv-x="367" />
<glyph unicode="&#x200a;" horiz-adv-x="102" />
<glyph unicode="&#x2010;" horiz-adv-x="454" d="M0 451v108h455v-108h-455z" />
<glyph unicode="&#x2011;" horiz-adv-x="454" d="M0 451v108h455v-108h-455z" />
<glyph unicode="&#x2012;" horiz-adv-x="454" d="M0 451v108h455v-108h-455z" />
<glyph unicode="&#x2013;" d="M104 451v108h861v-108h-861z" />
<glyph unicode="&#x2014;" horiz-adv-x="1366" d="M0 451v108h1366v-108h-1366z" />
<glyph unicode="&#x2018;" horiz-adv-x="387" d="M115 922v155q0 132 40.5 206t129.5 103v-81q-44 -25 -64.5 -67.5t-21.5 -117.5h73v-198h-157z" />
<glyph unicode="&#x2019;" horiz-adv-x="387" d="M102 903v82q44 23 64 65.5t22 116.5h-73v199h157v-154q0 -133 -40.5 -207t-129.5 -102z" />
<glyph unicode="&#x201a;" horiz-adv-x="387" d="M102 -184q44 25 64.5 68t21.5 116h-73v199h157v-156q0 -132 -40.5 -205.5t-129.5 -101.5v80z" />
<glyph unicode="&#x201c;" horiz-adv-x="673" d="M115 930v164q0 233 161 292v-77q-45 -29 -64 -72t-19 -115h71v-192h-149zM410 930v164q0 233 161 292v-77q-46 -29 -65 -72t-19 -115h72v-192h-149z" />
<glyph unicode="&#x201d;" horiz-adv-x="673" d="M102 909v78q46 29 65 72t19 115h-71v192h149v-164q0 -230 -162 -293zM395 909v78q86 48 86 187h-71v192h149v-164q0 -114 -43 -191t-121 -102z" />
<glyph unicode="&#x201e;" horiz-adv-x="673" d="M102 -186q46 29 65 71.5t19 114.5h-71v193h149v-164q0 -230 -162 -293v78zM395 -186q86 48 86 186h-71v193h149v-164q0 -114 -43 -191t-121 -102v78z" />
<glyph unicode="&#x2022;" horiz-adv-x="1366" d="M401 692q0 120 83.5 202.5t205.5 82.5q114 0 196.5 -83.5t82.5 -199.5q0 -118 -83 -201t-200 -83t-201 83t-84 199z" />
<glyph unicode="&#x2026;" horiz-adv-x="1044" d="M96 0v205h158v-205h-158zM444 0v205h158v-205h-158zM793 0v205h157v-205h-157z" />
<glyph unicode="&#x202f;" horiz-adv-x="367" />
<glyph unicode="&#x2039;" horiz-adv-x="397" d="M57 446v117l256 240v-125l-180 -174l180 -172v-125z" />
<glyph unicode="&#x203a;" horiz-adv-x="397" d="M84 207v125l180 174l-180 172v125l256 -238v-116z" />
<glyph unicode="&#x205f;" horiz-adv-x="459" />
<glyph unicode="&#x2122;" horiz-adv-x="1619" d="M-4 1290v76h657v-76h-284v-702h-90v702h-283zM711 588v778h116l285 -664l279 664h118v-778h-88v643l-270 -643h-78l-274 633v-633h-88z" />
<glyph unicode="&#x25fc;" horiz-adv-x="983" d="M0 0v983h983v-983h-983z" />
</font>
</defs>
</svg>
