<?xml version="1.0" standalone="no"?>
<!DOCTYPE svg PUBLIC "-//W3C//DTD SVG 1.1//EN" "http://www.w3.org/Graphics/SVG/1.1/DTD/svg11.dtd" >
<svg xmlns="http://www.w3.org/2000/svg">
<metadata></metadata>
<defs>
<font id="nimbus_sans_novus_d_otlight" horiz-adv-x="1095" >
<font-face units-per-em="2048" ascent="1638" descent="-410" />
<missing-glyph horiz-adv-x="512" />
<glyph unicode="&#xfb01;" horiz-adv-x="858" d="M-4 913v68h170v102q0 136 27 191q53 98 198 98q10 0 84 -4v-70q-53 9 -78 9q-96 0 -131 -60q-14 -23 -18 -57.5t-4 -124.5v-84h205v-68h-205v-913h-78v913h-170zM659 0v981h78v-981h-78zM659 1174v192h78v-192h-78z" />
<glyph unicode="&#xfb02;" horiz-adv-x="858" d="M-4 913v68h170v102q0 136 27 191q53 98 198 98q10 0 84 -4v-70q-53 9 -78 9q-96 0 -131 -60q-14 -23 -18 -57.5t-4 -124.5v-84h205v-68h-205v-913h-78v913h-170zM659 0v1366h78v-1366h-78z" />
<glyph horiz-adv-x="0" />
<glyph horiz-adv-x="682" />
<glyph unicode=" "  horiz-adv-x="512" />
<glyph unicode="&#x09;" horiz-adv-x="512" />
<glyph unicode="&#xa0;" horiz-adv-x="512" />
<glyph unicode="!" horiz-adv-x="378" d="M168 1366h84l-14 -1020h-56zM170 0v186h82v-186h-82z" />
<glyph unicode="&#x22;" horiz-adv-x="518" d="M96 1366h88l-10 -547h-68zM334 1366h88l-10 -547h-68z" />
<glyph unicode="#" d="M84 485l8 64h246l35 242h-246l8 63h246l55 391h64l-56 -391h256l56 391h63l-55 -391h250l-10 -63h-250l-33 -242h250l-10 -64h-250l-60 -422h-61l59 422h-256l-59 -422h-64l60 422h-246zM401 549h256l35 242h-256z" />
<glyph unicode="$" d="M94 426h76q0 -174 89 -273t259 -112v608q-103 27 -154.5 45.5t-91.5 42.5q-137 84 -137 273q0 152 100 239.5t283 93.5v146h47v-146q186 -11 290.5 -112.5t107.5 -278.5h-78q-12 301 -320 322v-559q178 -49 232 -72q200 -80 200 -307q0 -170 -114 -266t-318 -99v-176h-47 v178q-207 10 -316.5 127.5t-107.5 325.5zM215 1010q0 -113 58.5 -171.5t213.5 -101.5q8 -3 17.5 -5.5t13.5 -4.5v549q-146 -4 -224.5 -73.5t-78.5 -192.5zM565 39q169 3 261 79t92 214q0 177 -170 246q-34 16 -183 57v-596z" />
<glyph unicode="%" horiz-adv-x="1513" d="M63 1006q0 148 90 242.5t230 94.5q134 0 221.5 -94.5t87.5 -240.5q0 -151 -88.5 -247.5t-226.5 -96.5t-226 95t-88 247zM131 1006q0 -124 69.5 -204.5t176.5 -80.5q106 0 177 81.5t71 203.5q0 120 -70 199t-176 79q-108 0 -178 -78.5t-70 -199.5zM287 -47l852 1409h67 l-852 -1409h-67zM823 311q0 149 91 245.5t229 96.5q132 0 220.5 -96.5t88.5 -237.5q0 -152 -88.5 -249t-226.5 -97t-226 94.5t-88 243.5zM891 317q0 -125 69.5 -205.5t178.5 -80.5q103 0 173 81t70 201t-70.5 200.5t-174.5 80.5t-175 -79.5t-71 -197.5z" />
<glyph unicode="&#x26;" horiz-adv-x="1134" d="M63 328q0 120 80.5 216t276.5 210q-117 144 -152 208t-35 132q0 116 82.5 189t212.5 73q122 0 202.5 -73t80.5 -185q0 -127 -111 -232q-47 -45 -174 -131l326 -403q43 100 49 231h72q0 -67 -20 -150t-50 -141l225 -272h-98l-168 205q-143 -232 -397 -232 q-175 0 -288.5 100t-113.5 255zM141 328q0 -123 95.5 -207t234.5 -84q106 0 197.5 59t148.5 164l-356 440q-170 -97 -245 -184t-75 -188zM305 1094q0 -42 17 -81t61 -95q78 -104 102 -130q5 5 11 7l4 2q114 66 175.5 143t61.5 154q0 84 -61 140t-152 56q-96 0 -157.5 -55 t-61.5 -141z" />
<glyph unicode="'" horiz-adv-x="280" d="M96 1366h88l-10 -547h-68z" />
<glyph unicode="(" horiz-adv-x="505" d="M92 508q0 215 67 448t179 410h68q-110 -183 -172 -411t-62 -453q0 -440 234 -856h-68q-246 440 -246 862z" />
<glyph unicode=")" horiz-adv-x="505" d="M100 -354q110 183 172 411t62 453q0 435 -234 856h68q246 -440 246 -862q0 -215 -67 -448t-179 -410h-68z" />
<glyph unicode="*" d="M266 1145l17 51l235 -80v250h55v-250l236 80l20 -51l-239 -80l149 -201l-45 -33l-147 203l-154 -198l-45 32l154 197z" />
<glyph unicode="+" d="M84 625v65h430v432h66v-432h430v-65h-430v-432h-66v432h-430z" />
<glyph unicode="," horiz-adv-x="294" d="M72 -180q68 40 65 180h-37v195h97v-162q0 -121 -28 -183t-97 -96v66z" />
<glyph unicode="-" horiz-adv-x="436" d="M0 471v70h436v-70h-436z" />
<glyph unicode="." horiz-adv-x="294" d="M100 0v195h97v-195h-97z" />
<glyph unicode="/" horiz-adv-x="833" d="M-80 -354l770 1720h66l-766 -1720h-70z" />
<glyph unicode="0" d="M68 637q0 338 126.5 522t358.5 184q118 0 218 -60t159 -165q96 -173 96 -461q0 -329 -125.5 -507.5t-357.5 -178.5q-229 0 -352 172.5t-123 493.5zM147 633q0 -285 103.5 -439.5t294.5 -154.5q190 0 295.5 162.5t105.5 455.5q0 292 -103.5 455.5t-289.5 163.5 q-194 0 -300 -168t-106 -475z" />
<glyph unicode="1" d="M227 1010v65q128 23 211 79.5t152 166.5h69v-1321h-81v1178q-135 -147 -351 -168z" />
<glyph unicode="2" d="M109 0q9 83 29.5 141t71.5 119.5t127.5 121.5t209.5 148q192 132 267 230t75 217q0 137 -88.5 218t-239.5 81q-97 0 -173.5 -40t-117.5 -112q-52 -89 -55 -250h-78q3 118 24.5 193t71.5 137q52 66 140 102.5t192 36.5q185 0 294.5 -99.5t109.5 -266.5q0 -170 -131 -307 q-58 -58 -122.5 -108t-207.5 -146q-165 -110 -227.5 -180.5t-81.5 -165.5h63h729v-70h-882z" />
<glyph unicode="3" d="M84 397q0 23 2 39h74v-28q0 -171 103.5 -270t283.5 -99q165 0 270 92t105 236q0 151 -101.5 228t-298.5 77q-27 0 -45 -2v67q27 -2 58 -2q169 0 260.5 69t91.5 197q0 126 -89.5 200.5t-240.5 74.5q-172 0 -266 -95t-98 -276h-74q7 213 120.5 325.5t319.5 112.5 q183 0 295.5 -93t112.5 -246q0 -118 -70.5 -196.5t-196.5 -100.5q59 -9 96.5 -23t73.5 -41q63 -43 97 -112.5t34 -155.5q0 -180 -126.5 -292t-329.5 -112q-211 0 -336 115.5t-125 310.5z" />
<glyph unicode="4" d="M80 338v80l637 907h78v-917h217v-70h-217v-338h-76v338h-639zM150 408h569v811z" />
<glyph unicode="5" d="M94 401h76q8 -117 45 -186q44 -82 132.5 -129t195.5 -47q163 0 270 110t107 279q0 170 -107 279.5t-272 109.5q-213 0 -332 -180l-74 2l135 674h670v-70h-612l-111 -520q126 162 334 162q193 0 320.5 -129t127.5 -324q0 -198 -130 -329.5t-326 -131.5q-202 0 -323 116 t-126 314z" />
<glyph unicode="6" d="M96 610q0 353 124.5 543t354.5 190q168 0 275 -91.5t133 -258.5h-78q-23 131 -111.5 206t-220.5 75q-200 0 -299.5 -169.5t-105.5 -520.5q52 138 157 212t248 74q188 0 313.5 -128t125.5 -318q0 -194 -129 -323.5t-322 -129.5q-118 0 -215 51.5t-156 145.5 q-94 142 -94 442zM190 424q0 -164 107.5 -274.5t265.5 -110.5t263.5 109.5t105.5 273.5q0 161 -105.5 271t-259.5 110q-163 0 -270 -108t-107 -271z" />
<glyph unicode="7" d="M147 1245l5 68h847v-70q-6 -6 -12 -14l-9 -12t-5 -5q-35 -37 -70 -73q-210 -239 -333 -540t-134 -599h-84q9 325 168 666.5t410 578.5h-783z" />
<glyph unicode="8" d="M82 369q0 140 78.5 230t224.5 116q-120 28 -184 104t-64 191q0 154 110.5 243.5t299.5 89.5q192 0 300.5 -87.5t108.5 -241.5q0 -115 -63 -192.5t-182 -106.5q109 -18 180 -72q121 -98 121 -268q0 -187 -123.5 -295.5t-337.5 -108.5q-218 0 -343.5 106.5t-125.5 291.5z M162 371q0 -155 103.5 -243.5t283.5 -88.5q177 0 280 89t103 241q0 148 -102.5 230.5t-284.5 82.5q-178 0 -280.5 -83t-102.5 -228zM217 1008q0 -122 89 -192.5t243 -70.5q153 0 241.5 70.5t88.5 192.5q0 127 -86.5 197.5t-243.5 70.5t-244.5 -70.5t-87.5 -197.5z" />
<glyph unicode="9" d="M82 889q0 194 128 324t320 130q137 0 244 -66t162 -187q65 -142 65 -394q0 -284 -67 -442q-59 -138 -162 -210.5t-244 -72.5q-166 0 -277.5 93.5t-131.5 248.5h76q23 -126 113 -200t220 -74q194 0 297 162.5t103 468.5q0 8 -2 69l-13 -28q-112 -267 -389 -267 q-190 0 -316 127t-126 318zM162 891q0 -162 105 -270.5t263 -108.5q160 0 266.5 109t106.5 272q0 160 -107 271.5t-259 111.5q-161 0 -268 -109.5t-107 -275.5z" />
<glyph unicode=":" horiz-adv-x="329" d="M133 0v195h96v-195h-96zM133 754v194h96v-194h-96z" />
<glyph unicode=";" horiz-adv-x="329" d="M104 -180q69 40 66 180h-37v195h96v-162q0 -121 -28 -183t-97 -96v66zM133 754v194h96v-194h-96z" />
<glyph unicode="&#x3c;" horiz-adv-x="1024" d="M68 645v78l886 397v-88l-792 -348l792 -348v-88z" />
<glyph unicode="=" d="M84 494v65h926v-65h-926zM84 766v68h926v-68h-926z" />
<glyph unicode="&#x3e;" horiz-adv-x="1024" d="M70 248v88l792 348l-792 348v88l886 -397v-78z" />
<glyph unicode="?" horiz-adv-x="933" d="M74 942q3 164 61 266q53 88 146 137.5t208 49.5q172 0 282 -95.5t110 -246.5q0 -125 -82 -232q-20 -27 -152 -153q-84 -76 -105.5 -131.5t-23.5 -192.5h-78q0 149 28 215.5t128 157.5q123 115 164 182t41 150q0 121 -88.5 199.5t-225.5 78.5q-100 0 -175.5 -43 t-118.5 -125q-23 -44 -33 -90.5t-13 -126.5h-73zM438 0v190h84v-190h-84z" />
<glyph unicode="@" horiz-adv-x="1466" d="M88 657q0 141 53.5 268.5t145 220t217.5 146.5t266 54q168 0 307.5 -74t219 -202.5t79.5 -283.5q0 -234 -174 -380q-58 -50 -124 -78.5t-124 -28.5q-60 0 -95.5 31t-41.5 88q-103 -115 -223 -115q-89 0 -145 66t-56 172q0 122 54 235.5t143 183.5t184 70q131 0 184 -139 l39 106h68l-166 -481q-18 -56 -18 -88q0 -78 90 -78q100 0 209 101q141 138 141 335q0 215 -158 361.5t-391 146.5q-173 0 -317 -84t-227 -230.5t-83 -322.5q0 -171 81 -313.5t222.5 -224.5t311.5 -82q165 0 309 82.5t219 220.5h58q-30 -68 -65.5 -114t-96.5 -93 q-188 -147 -426 -147q-184 0 -338 89t-243 243.5t-89 338.5zM467 528q0 -83 36.5 -130.5t100.5 -47.5q84 0 154 70q29 27 48 61.5t44 102.5l47 129q27 74 27 114q0 64 -40.5 110t-97.5 46q-77 0 -151.5 -66t-121 -172.5t-46.5 -216.5z" />
<glyph unicode="A" horiz-adv-x="1210" d="M12 0l553 1366h88l543 -1366h-90l-172 438h-660l-172 -438h-90zM301 510h606l-301 764z" />
<glyph unicode="B" horiz-adv-x="1218" d="M131 0v1366h543q183 0 282 -61q73 -44 113.5 -117.5t40.5 -161.5q0 -118 -71.5 -202.5t-190.5 -106.5q103 -18 151 -49q75 -44 117.5 -120t42.5 -167q0 -114 -57.5 -202t-161.5 -134q-96 -45 -281 -45h-528zM215 72h438q206 0 301 65q121 85 121 244q0 291 -411 291h-449 v-600zM215 743h389q195 0 266 35q73 30 114.5 95t41.5 145q0 164 -135 233q-82 43 -240 43h-436v-551z" />
<glyph unicode="C" horiz-adv-x="1345" d="M74 680q0 212 79.5 375t224.5 252.5t333 89.5q144 0 266.5 -57t200 -158t92.5 -226h-82q-35 169 -166 269t-317 100q-243 0 -395 -178.5t-152 -464.5q0 -287 149.5 -464t392.5 -177q211 0 347.5 131t162.5 358h82q-22 -251 -185 -406t-407 -155q-281 0 -453.5 196 t-172.5 515z" />
<glyph unicode="D" horiz-adv-x="1288" d="M131 0v1366h461q144 0 246 -33.5t182 -107.5q94 -86 144 -221t50 -299q0 -359 -192 -551q-82 -82 -182 -118t-246 -36h-463zM215 72h350q144 0 233 28.5t160 96.5q172 169 172 501q0 301 -155 459q-69 72 -161 104.5t-226 32.5h-373v-1222z" />
<glyph unicode="E" horiz-adv-x="1101" d="M131 0v1366h920v-72h-836v-546h786v-72h-786v-604h846v-72h-930z" />
<glyph unicode="F" horiz-adv-x="991" d="M131 0v1366h860v-72h-776v-549h696v-71h-696v-674h-84z" />
<glyph unicode="G" horiz-adv-x="1413" d="M74 668q0 325 179 527t466 202q222 0 378 -124t193 -329h-80q-35 171 -170 276t-321 105q-254 0 -407.5 -179.5t-153.5 -477.5q0 -282 155 -454.5t408 -172.5q230 0 374 147t144 383v25h-504v72h578v-668h-70v332q-57 -172 -194 -267.5t-330 -95.5q-189 0 -336 88 t-228 247t-81 364z" />
<glyph unicode="H" horiz-adv-x="1304" d="M131 0v1366h84v-614h875v614h84v-1366h-84v680h-875v-680h-84z" />
<glyph unicode="I" horiz-adv-x="346" d="M131 0v1366h84v-1366h-84z" />
<glyph unicode="J" horiz-adv-x="874" d="M2 381q0 26 2 51h78v-45q0 -151 37 -215q67 -131 266 -131q166 0 240 100q29 38 41 91.5t12 142.5v991h84v-995q0 -98 -16 -160t-54 -111q-101 -131 -309 -131q-197 0 -289 99.5t-92 312.5z" />
<glyph unicode="K" horiz-adv-x="1183" d="M131 0v1366h84v-780l862 780h111l-631 -567l668 -799h-105l-620 743l-285 -258v-485h-84z" />
<glyph unicode="L" horiz-adv-x="985" d="M131 0v1366h84v-1294h778v-72h-862z" />
<glyph unicode="M" horiz-adv-x="1579" d="M131 0v1366h119l543 -1262l538 1262h117v-1366h-84v1249l-530 -1249h-82l-537 1243v-1243h-84z" />
<glyph unicode="N" horiz-adv-x="1320" d="M131 0v1366h100l875 -1243v1243h84v-1366h-96l-879 1241v-1241h-84z" />
<glyph unicode="O" horiz-adv-x="1443" d="M74 682q0 212 81.5 374.5t230.5 251.5t343 89q186 0 333 -92t228.5 -257t81.5 -374q0 -315 -180 -510t-473 -195q-289 0 -467 197t-178 516zM158 684q0 -287 155.5 -465t407.5 -178q254 0 410.5 175.5t156.5 459.5q0 187 -71 335t-198.5 231t-289.5 83 q-256 0 -413.5 -177t-157.5 -464z" />
<glyph unicode="P" horiz-adv-x="1146" d="M131 0v1366h533q108 0 173 -14t119 -49q74 -50 114 -131.5t40 -182.5q0 -180 -113 -281.5t-311 -101.5h-471v-606h-84zM215 678h424q97 0 147.5 9.5t96.5 35.5q143 84 143 262q0 175 -123 256q-44 31 -98 42t-156 11h-434v-616z" />
<glyph unicode="Q" horiz-adv-x="1443" d="M74 674q0 322 180.5 522.5t470.5 200.5q188 0 335 -89.5t228.5 -251.5t81.5 -370q0 -163 -54.5 -305.5t-152.5 -239.5l213 -151l-43 -53l-225 161q-74 -62 -173.5 -95.5t-209.5 -33.5q-290 0 -470.5 195t-180.5 510zM158 678q0 -260 125 -426q75 -98 193.5 -154.5 t250.5 -56.5q181 0 315 104l-213 152l45 55l228 -164q184 205 184 498q0 283 -156 461t-405 178q-253 0 -410 -179t-157 -468z" />
<glyph unicode="R" horiz-adv-x="1236" d="M131 0v1366h563q187 0 285 -63q151 -97 151 -299q0 -135 -76 -224.5t-214 -117.5q67 -9 110 -28t80 -56q46 -55 59.5 -114t22.5 -237q3 -155 31 -209l10 -18h-92q-24 37 -29 211q-8 173 -26 239t-70 109q-44 37 -112 52.5t-185 15.5h-424v-627h-84zM215 698h412 q198 0 288 56q132 78 132 245q0 166 -125 242q-85 53 -254 53h-453v-596z" />
<glyph unicode="S" horiz-adv-x="1136" d="M25 453h79q3 -169 84 -269q55 -67 155 -104t226 -37q201 0 313.5 82.5t112.5 230.5q0 152 -139 222q-43 21 -100.5 37.5t-216.5 54.5q-158 35 -226 57.5t-123 56.5q-60 38 -92 103t-32 147q0 167 126.5 264t344.5 97q137 0 245.5 -41.5t173.5 -118.5q41 -51 61.5 -110.5 t26.5 -147.5h-81q-12 144 -78 219q-54 61 -145.5 94t-207.5 33q-180 0 -281 -76t-101 -211q0 -156 149 -219q47 -21 85.5 -31t246.5 -59q139 -32 200 -52.5t113 -51.5q65 -41 100 -109t35 -152q0 -183 -136.5 -287t-377.5 -104q-155 0 -272.5 48t-183.5 137 q-43 60 -63 129.5t-21 167.5z" />
<glyph unicode="T" horiz-adv-x="1024" d="M-12 1294v72h1050v-72h-483v-1294h-84v1294h-483z" />
<glyph unicode="U" horiz-adv-x="1280" d="M113 535v831h84v-836q0 -119 18 -193t61 -136q115 -160 373 -160q247 0 359 160q75 110 75 331v834h84v-836q0 -125 -18.5 -206t-63.5 -150q-134 -205 -436 -205q-336 0 -467 228q-38 64 -53.5 141t-15.5 197z" />
<glyph unicode="V" horiz-adv-x="1148" d="M12 1366h90l478 -1272l471 1272h84l-508 -1366h-99z" />
<glyph unicode="W" horiz-adv-x="1777" d="M25 1366h90l358 -1249l365 1249h102l373 -1249l356 1249h82l-391 -1366h-94l-379 1274l-371 -1274h-94z" />
<glyph unicode="X" horiz-adv-x="1130" d="M2 0l514 702l-483 664h98l436 -596l445 596h92l-486 -664l512 -702h-100l-465 635l-465 -635h-98z" />
<glyph unicode="Y" horiz-adv-x="1134" d="M-25 1366h101l495 -717l496 717h96l-553 -797v-569h-84v569z" />
<glyph unicode="Z" horiz-adv-x="1105" d="M39 0v82l928 1212h-869v72h961v-80l-928 -1214h946v-72h-1038z" />
<glyph unicode="[" horiz-adv-x="509" d="M160 -354v1720h264v-63h-188v-1594h188v-63h-264z" />
<glyph unicode="\" horiz-adv-x="833" d="M78 1366h65l770 -1720h-69z" />
<glyph unicode="]" horiz-adv-x="509" d="M86 -291h188v1594h-188v63h264v-1720h-264v63z" />
<glyph unicode="^" horiz-adv-x="1024" d="M80 791l379 575h104l379 -575h-92l-342 516l-338 -516h-90z" />
<glyph unicode="_" horiz-adv-x="1024" d="M0 -145h1024v-66h-1024v66z" />
<glyph unicode="`" horiz-adv-x="1024" d="M264 1407h101l231 -270h-72z" />
<glyph unicode="a" horiz-adv-x="944" d="M45 246q0 94 47 161t137 101q57 22 107.5 29t273.5 26q83 8 111.5 34.5t28.5 96.5q0 121 -56 174q-74 74 -223 74q-273 0 -297 -262h-76q10 160 109 245t274 85q115 0 201.5 -40.5t120.5 -109.5q17 -38 20.5 -74.5t3.5 -183.5v-440q0 -57 15 -79t55 -22q15 0 49 9v-64 q-32 -12 -67 -12q-84 0 -107 47q-11 23 -14.5 52.5t-3.5 115.5q-62 -123 -154.5 -180.5t-228.5 -57.5q-154 0 -240 73t-86 202zM121 256q0 -100 69.5 -159.5t186.5 -59.5q163 0 268 97.5t105 248.5v174q-20 -25 -71.5 -39.5t-150.5 -23.5q-128 -13 -184 -24.5t-106 -33.5 q-55 -25 -86 -72.5t-31 -107.5z" />
<glyph unicode="b" horiz-adv-x="1079" d="M121 0v1366h80v-616q100 260 374 260q198 0 315.5 -140t117.5 -378q0 -239 -117.5 -380t-317.5 -141q-287 0 -374 265v-236h-78zM201 492q0 -205 100 -329t266 -124t264.5 122.5t98.5 327.5t-98 329t-261 124q-172 0 -271 -120.5t-99 -329.5z" />
<glyph unicode="c" horiz-adv-x="991" d="M72 487q0 238 125 380.5t335 142.5q169 0 275.5 -87.5t126.5 -242.5h-80q-25 128 -107.5 195t-214.5 67q-175 0 -278.5 -123t-103.5 -330q0 -203 101.5 -326.5t268.5 -123.5q141 0 232.5 82t111.5 225h78q-25 -178 -135 -276.5t-283 -98.5q-238 0 -362 185 q-90 142 -90 331z" />
<glyph unicode="d" horiz-adv-x="1079" d="M72 485q0 238 119.5 381.5t318.5 143.5q133 0 224 -62.5t147 -191.5v610h77v-1366h-75v240q-35 -127 -133.5 -198t-239.5 -71q-203 0 -320.5 138t-117.5 376zM150 485q0 -206 97.5 -326t266.5 -120q171 0 270 120.5t99 329.5q0 205 -92 322q-51 63 -121.5 97t-149.5 34 q-172 0 -271 -122.5t-99 -334.5z" />
<glyph unicode="e" horiz-adv-x="1009" d="M72 483q0 233 124 380t322 147q123 0 220 -60.5t153 -171.5q57 -111 57 -299h-796q2 -207 99 -323.5t269 -116.5q135 0 223.5 78t116.5 219h78q-31 -172 -141 -268.5t-277 -96.5q-204 0 -326 140t-122 372zM152 547h716q-3 83 -17 134.5t-46 102.5q-47 75 -122.5 116.5 t-164.5 41.5q-94 0 -174.5 -45t-126.5 -123q-29 -48 -42.5 -96.5t-22.5 -130.5z" />
<glyph unicode="f" horiz-adv-x="440" d="M-4 913v68h170v102q0 136 27 191q53 98 198 98q10 0 84 -4v-70q-53 9 -78 9q-96 0 -131 -60q-14 -23 -18 -57.5t-4 -124.5v-84h205v-68h-205v-913h-78v913h-170z" />
<glyph unicode="g" horiz-adv-x="1054" d="M72 510q0 226 117.5 363t312.5 137q126 0 219.5 -66.5t136.5 -187.5v225h76v-901q0 -103 -12.5 -166.5t-44.5 -116.5q-100 -172 -371 -172q-179 0 -279 77.5t-110 225.5h78q29 -235 311 -235q184 0 267 91t83 294v205q-34 -78 -57 -107q-54 -68 -135 -104.5t-177 -36.5 q-189 0 -302 129t-113 346zM150 522q0 -193 93.5 -306.5t252.5 -113.5q163 0 260.5 114.5t97.5 305.5q0 189 -95.5 304.5t-250.5 115.5q-164 0 -261 -114t-97 -306z" />
<glyph unicode="h" horiz-adv-x="1015" d="M121 0v1366h78v-606q38 118 130 184t220 66q95 0 171 -37.5t122 -106.5q31 -46 44 -100t13 -137v-629h-78v616q0 81 -12.5 131.5t-42.5 88.5q-80 106 -231 106q-88 0 -159.5 -41t-115.5 -117q-34 -55 -47.5 -119.5t-13.5 -166.5v-498h-78z" />
<glyph unicode="i" horiz-adv-x="321" d="M121 0v981h78v-981h-78zM121 1174v192h78v-192h-78z" />
<glyph unicode="j" horiz-adv-x="319" d="M-74 -289h39q58 0 82 8t41 33q31 42 31 139v1090h78v-1085q0 -144 -49 -199t-177 -55q-25 0 -45 2v67zM119 1174v192h78v-192h-78z" />
<glyph unicode="k" horiz-adv-x="931" d="M121 0v1366h78v-903l606 518h104l-430 -365l461 -616h-98l-422 561l-221 -188v-373h-78z" />
<glyph unicode="l" horiz-adv-x="321" d="M121 0v1366h78v-1366h-78z" />
<glyph unicode="m" horiz-adv-x="1548" d="M121 0v981h78v-199q90 228 319 228q217 0 287 -211q53 109 129 160t188 51q158 0 246 -105q35 -45 49.5 -96t14.5 -135v-674h-78v666q0 120 -41 178q-31 47 -85 72.5t-122 25.5q-135 0 -211 -89t-76 -247v-606h-78v649q0 118 -30 174q-28 57 -83 88t-126 31 q-140 0 -220.5 -102.5t-80.5 -280.5v-559h-80z" />
<glyph unicode="n" horiz-adv-x="1019" d="M121 0v981h78v-213q102 242 360 242q89 0 162 -32.5t119 -92.5q36 -47 49.5 -102t13.5 -156v-627h-78v608q0 136 -30 197q-31 63 -98.5 100t-153.5 37q-94 0 -171 -42.5t-118 -117.5q-29 -52 -41 -113.5t-12 -158.5v-510h-80z" />
<glyph unicode="o" horiz-adv-x="1050" d="M72 489q0 236 126 378.5t337 142.5q201 0 323.5 -144.5t122.5 -380.5q0 -235 -123 -374.5t-332 -139.5q-206 0 -330 141.5t-124 376.5zM150 489q0 -205 103 -327.5t275 -122.5q170 0 272.5 122t102.5 324q0 204 -102.5 330.5t-268.5 126.5q-173 0 -277.5 -124 t-104.5 -329z" />
<glyph unicode="p" horiz-adv-x="1073" d="M121 -354v1335h78v-231q40 124 135.5 192t230.5 68q198 0 317 -143t119 -380q0 -232 -120 -374t-316 -142q-135 0 -230.5 66.5t-133.5 187.5v-579h-80zM199 485q0 -200 86 -311q104 -135 276 -135q164 0 263.5 122.5t99.5 325.5q0 207 -98.5 331t-262.5 124 q-173 0 -268.5 -119.5t-95.5 -337.5z" />
<glyph unicode="q" horiz-adv-x="1071" d="M72 485q0 239 119.5 382t320.5 143q135 0 220.5 -60.5t144.5 -197.5v229h73v-1335h-78v579q-46 -123 -141 -188.5t-227 -65.5q-198 0 -315 139.5t-117 374.5zM150 483q0 -204 97 -324t263 -120q167 0 267 122t100 326q0 209 -97 332t-260 123q-173 0 -271.5 -122 t-98.5 -337z" />
<glyph unicode="r" horiz-adv-x="542" d="M121 0v981h78v-258q28 79 61 125.5t86 81.5q37 25 69.5 36t88.5 19q44 4 62 4h9h5v-78h-29q-83 0 -153 -34.5t-117 -98.5q-46 -64 -63 -137.5t-17 -216.5v-424h-80z" />
<glyph unicode="s" horiz-adv-x="901" d="M41 330h78q1 -64 11.5 -102t35.5 -72q40 -56 113 -86.5t165 -30.5q139 0 224.5 60.5t85.5 158.5q0 83 -65 128t-240 85q-121 28 -174 44t-93 38q-51 28 -79.5 77.5t-28.5 110.5q0 126 94 197.5t260 71.5q206 0 303 -111q33 -38 48.5 -82.5t21.5 -120.5h-80 q-11 128 -82.5 187t-216.5 59q-127 0 -198.5 -52.5t-71.5 -144.5q0 -59 32 -96q32 -34 87 -54.5t194 -51.5q185 -43 252 -82q54 -31 84 -84.5t30 -116.5q0 -129 -107.5 -209t-279.5 -80q-115 0 -202.5 37t-137.5 105q-34 46 -47.5 94t-15.5 123z" />
<glyph unicode="t" horiz-adv-x="444" d="M-51 913v68h178v307h78v-307h213v-68h-213v-663q0 -104 16 -135q25 -54 113 -54q33 0 84 11v-70q-55 -8 -94 -8q-132 0 -172 76q-15 28 -20 67t-5 144v632h-178z" />
<glyph unicode="u" horiz-adv-x="1013" d="M119 348v633h78v-586q0 -90 6 -134t26 -83q29 -65 97.5 -103t154.5 -38q152 0 243 111.5t91 300.5v532h78v-981h-76v207q-102 -236 -352 -236q-167 0 -256.5 97t-89.5 280z" />
<glyph unicode="v" horiz-adv-x="841" d="M-10 981h86l360 -887l334 887h80l-371 -981h-90z" />
<glyph unicode="w" horiz-adv-x="1366" d="M2 981h84l276 -875l275 875h96l271 -872l278 872h80l-318 -981h-88l-274 877l-272 -877h-91z" />
<glyph unicode="x" horiz-adv-x="856" d="M-12 0l389 514l-359 467h99l307 -406l313 406h92l-356 -463l395 -518h-100l-344 457l-344 -457h-92z" />
<glyph unicode="y" horiz-adv-x="856" d="M-10 981h88l368 -875l336 875h82l-422 -1083q-60 -156 -108 -199q-57 -51 -151 -51h-11l-45 2h-29v69q13 -1 27 -2t22 -1.5t15 -0.5q63 0 101 23t67 80q6 12 43 98q3 10 22 53q13 29 13 31q-2 4 -2 8z" />
<glyph unicode="z" horiz-adv-x="798" d="M23 0v74l657 839h-608v68h702v-66l-661 -847h692v-68h-782z" />
<glyph unicode="{" horiz-adv-x="509" d="M33 473v66q65 20 92 63t27 129v359q0 142 61.5 209t192.5 67h12v-66h-21q-38 0 -74.5 -14t-54.5 -37q-41 -44 -41 -151v-369q0 -95 -24 -143.5t-86 -79.5q61 -32 85.5 -84.5t24.5 -151.5v-350q0 -120 47 -170q19 -18 53.5 -29.5t69.5 -11.5h21v-63h-15 q-138 0 -194.5 69.5t-56.5 237.5v321q0 90 -25.5 133t-93.5 66z" />
<glyph unicode="|" horiz-adv-x="1024" d="M469 -342v1708h86v-1708h-86z" />
<glyph unicode="}" horiz-adv-x="509" d="M92 -289h21q38 0 74.5 14t54.5 37q41 44 41 152v369q0 95 24 144t86 81q-60 31 -85 83t-25 150v351q0 120 -47 170q-19 18 -53.5 29.5t-69.5 11.5h-21v63h14q138 0 195 -70t57 -237v-322q0 -90 25.5 -132.5t93.5 -65.5v-66q-65 -20 -92 -63t-27 -129v-359 q0 -142 -61.5 -209t-192.5 -67h-12v65z" />
<glyph unicode="~" horiz-adv-x="1366" d="M195 1257q109 205 264 205q79 0 239 -86q91 -46 131.5 -61t77.5 -15q62 0 109.5 37.5t99.5 128.5l55 -39q-106 -204 -270 -204q-46 0 -93.5 18t-174.5 84q-110 59 -178 59q-59 0 -106.5 -38.5t-98.5 -128.5z" />
<glyph unicode="&#xa1;" horiz-adv-x="378" d="M168 0l14 1020h56l14 -1020h-84zM168 1178v188h82v-188h-82z" />
<glyph unicode="&#xa2;" d="M119 678q0 226 109.5 363t306.5 157v168h47v-168q155 -2 263.5 -94.5t121.5 -237.5h-78q-17 116 -101.5 189.5t-205.5 77.5v-906q123 0 210.5 85t104.5 220h76q-17 -163 -126.5 -265.5t-264.5 -102.5v-205h-47v205q-195 12 -305.5 149t-110.5 365zM199 680 q0 -196 86.5 -313t249.5 -140v903q-160 -19 -248 -136.5t-88 -313.5z" />
<glyph unicode="&#xa3;" d="M111 33q104 78 162.5 177t58.5 196q0 100 -56 215h-153v47h125q-52 91 -58 102q-65 109 -65 223q0 157 120.5 253.5t315.5 96.5q207 0 325 -112.5t118 -310.5v-29h-76q-3 190 -95.5 287.5t-271.5 97.5q-160 0 -258 -79t-98 -208q0 -52 16 -98.5t62 -132.5 q5 -10 22.5 -41.5t26.5 -48.5h305v-47h-279q48 -108 48 -203q0 -120 -82 -236q-20 -28 -37 -46.5t-80 -82.5q83 43 118 53.5t89 10.5q47 0 84 -10t164 -56q52 -18 106 -18q64 0 137.5 36t122.5 93l43 -58q-138 -141 -303 -141q-47 0 -83.5 9.5t-166.5 52.5q-64 24 -133 24 q-56 0 -105.5 -18.5t-119.5 -65.5z" />
<glyph unicode="&#xa4;" horiz-adv-x="1312" d="M121 1194l49 49l184 -182q138 115 301 115t299 -115l187 182l49 -49l-184 -184q110 -136 110 -295q0 -162 -110 -295l184 -184l-49 -52l-185 187q-135 -111 -299 -111q-157 0 -297 111l-184 -187l-49 52l180 184q-110 136 -110 297q0 158 110 293zM274 717 q0 -158 112.5 -270.5t270.5 -112.5q157 0 269 112.5t112 270.5t-111 271.5t-265 113.5q-162 0 -275 -112t-113 -273z" />
<glyph unicode="&#xa5;" d="M72 1315h92l385 -662l383 662h88l-322 -551h281v-47h-309l-86 -148v-92h354v-47h-354v-430h-76v430h-354v47h354v92l-86 148h-309v47h280z" />
<glyph unicode="&#xa6;" horiz-adv-x="1024" d="M469 313h86v-655h-86v655zM469 698v668h86v-668h-86z" />
<glyph unicode="&#xa7;" d="M113 612q0 94 55.5 166t153.5 107q-101 82 -101 200q0 115 87 189t222 74q162 0 249.5 -86.5t92.5 -251.5h-75q-4 133 -72.5 201.5t-194.5 68.5q-102 0 -166.5 -54t-64.5 -139q0 -78 51 -129q40 -40 162 -108q151 -85 216 -125t118 -82q135 -109 135 -242q0 -89 -58 -161 t-159 -107q62 -56 88.5 -105t26.5 -110q0 -120 -91.5 -196t-236.5 -76q-203 0 -293 137q-23 35 -34.5 68t-18.5 90q-5 50 -4 57v2h78q3 -141 72 -214t200 -73q110 0 179 56t69 145q0 93 -80 160q-52 43 -234 151q-144 85 -194 118.5t-86 68.5q-92 89 -92 200zM188 618 q0 -95 97 -174q40 -31 83.5 -58t264.5 -159q55 -34 78 -53q94 31 144 87t50 130q0 63 -38 116.5t-129.5 117.5t-270.5 163q-70 42 -94 58q-98 -46 -141.5 -99.5t-43.5 -128.5z" />
<glyph unicode="&#xa8;" horiz-adv-x="1024" d="M305 1171v197h80v-197h-80zM641 1171v197h80v-197h-80z" />
<glyph unicode="&#xa9;" horiz-adv-x="1570" d="M72 682q0 196 96 360.5t262.5 259.5t364.5 95q142 0 272 -57t224.5 -153t151 -228.5t56.5 -276.5q0 -145 -56.5 -277t-152 -227.5t-227.5 -152t-277 -56.5q-193 0 -357.5 95.5t-260.5 260t-96 357.5zM133 682q0 -133 52 -255t139.5 -210t208 -140t253.5 -52 q132 0 252.5 52t208 140t139.5 210.5t52 256.5q0 106 -33 205.5t-93 180.5t-139 142.5t-177 95t-201 33.5q-137 0 -259.5 -51.5t-211 -139.5t-140 -210t-51.5 -258zM406 682q0 182 108 295t281 113q136 0 232 -73.5t110 -187.5h-62q-22 97 -98 152t-186 55 q-143 0 -232.5 -97.5t-89.5 -254.5q0 -158 88 -255t231 -97q126 0 206.5 72.5t95.5 199.5h61q-12 -148 -112 -238t-251 -90q-172 0 -277 112t-105 294z" />
<glyph unicode="&#xaa;" horiz-adv-x="622" d="M45 700q0 117 117 162q38 13 72 18t161 15q47 5 62.5 18.5t15.5 51.5q0 71 -39 104t-123 33q-83 0 -124.5 -38t-49.5 -118h-61q6 103 67.5 157t173.5 54q72 0 126.5 -24.5t76.5 -67.5q12 -27 14.5 -82t2.5 -336q0 -29 6.5 -39t25.5 -10q14 0 41 8v-53q-25 -10 -49 -10 q-47 0 -66 22t-20 80q-47 -64 -97 -89.5t-128 -25.5q-95 0 -150 45.5t-55 124.5zM109 705q0 -56 40 -88.5t107 -32.5q95 0 156 55t61 141v84q-30 -13 -50 -17.5t-75 -10.5q-122 -11 -174 -33q-65 -29 -65 -98z" />
<glyph unicode="&#xab;" horiz-adv-x="614" d="M59 467v74l220 250v-91l-166 -198l166 -187v-96zM305 465v74l221 254v-91l-168 -200l168 -193v-90z" />
<glyph unicode="&#xac;" horiz-adv-x="1024" d="M68 477v78h886v-555h-86v477h-800z" />
<glyph unicode="&#xad;" horiz-adv-x="436" d="M0 471v70h436v-70h-436z" />
<glyph unicode="&#xae;" horiz-adv-x="1570" d="M72 682q0 196 96 360.5t262.5 259.5t364.5 95q142 0 272 -57t224.5 -153t151 -228.5t56.5 -276.5q0 -145 -56.5 -277t-152 -227.5t-227.5 -152t-277 -56.5q-193 0 -357.5 95.5t-260.5 260t-96 357.5zM133 682q0 -133 52 -255t139.5 -210t208 -140t253.5 -52 q132 0 252.5 52t208 140t139.5 210.5t52 256.5q0 106 -33 205.5t-93 180.5t-139 142.5t-177 95t-201 33.5q-137 0 -259.5 -51.5t-211 -139.5t-140 -210t-51.5 -258zM500 293v778h344q130 0 199 -54t69 -155q0 -139 -145 -190q78 -22 104 -70t31 -174q3 -86 16 -115l15 -20 h-72q-18 25 -21 125q-4 96 -14.5 131t-40.5 59q-48 37 -174 37h-248v-352h-63zM563 698h240q126 0 186 39.5t60 122.5q0 158 -222 158h-264v-320z" />
<glyph unicode="&#xaf;" horiz-adv-x="1024" d="M254 1233v59h516v-59h-516z" />
<glyph unicode="&#xb0;" horiz-adv-x="696" d="M68 1075q0 116 82 197.5t200 81.5q116 0 196.5 -82.5t80.5 -200.5q0 -114 -81.5 -196t-195.5 -82q-118 0 -200 81.5t-82 200.5zM131 1073q0 -91 64 -155t153 -64q88 0 151.5 63.5t63.5 151.5q0 94 -63.5 158.5t-155.5 64.5q-86 0 -149.5 -65t-63.5 -154z" />
<glyph unicode="&#xb1;" d="M84 55v66h926v-66h-926zM84 625v65h430v432h66v-432h430v-65h-430v-432h-66v432h-430z" />
<glyph unicode="&#xb2;" horiz-adv-x="708" d="M78 545q5 70 28.5 117t78 94t165.5 118q117 76 161 131t44 123q0 76 -52.5 122t-140.5 46q-101 0 -150.5 -58t-51.5 -177h-64q1 144 69.5 217.5t199.5 73.5q115 0 184 -61.5t69 -162.5q0 -91 -56 -156.5t-228 -178.5q-96 -63 -131.5 -99.5t-50.5 -89.5h481v-59h-555z" />
<glyph unicode="&#xb3;" horiz-adv-x="708" d="M63 788v31h64q-2 -10 -2 -22q0 -100 61 -156.5t168 -56.5q97 0 159 52t62 134q0 172 -237 172q-19 0 -35 -2v55h43q99 0 153 39t54 111q0 69 -52.5 110t-140.5 41q-209 0 -215 -217h-61q5 134 75.5 203.5t202.5 69.5q114 0 185 -57.5t71 -149.5q0 -63 -34 -107.5 t-97 -66.5q72 -22 112 -73t40 -124q0 -109 -80 -177.5t-207 -68.5q-131 0 -210 71t-79 189z" />
<glyph unicode="&#xb4;" horiz-adv-x="1024" d="M432 1137l225 270h97l-252 -270h-70z" />
<glyph unicode="&#xb6;" d="M84 999q0 100 46.5 185t125.5 129q95 53 266 53h465v-63h-108v-1657h-82v1657h-217v-1657h-82v993h-33q-170 2 -275.5 101t-105.5 259z" />
<glyph unicode="&#xb7;" horiz-adv-x="294" d="M100 408v196h97v-196h-97z" />
<glyph unicode="&#xb8;" horiz-adv-x="1024" d="M303 -334l21 47q80 -35 149 -35q60 0 96.5 26t36.5 67q0 37 -30 59.5t-78 22.5q-30 0 -92 -21l-27 25l115 143h53l-86 -109q52 9 74 9q65 0 106 -33.5t41 -85.5q0 -69 -55.5 -110.5t-147.5 -41.5q-76 0 -176 37z" />
<glyph unicode="&#xb9;" horiz-adv-x="708" d="M152 1139v55q81 12 132 45t93 100h55v-792h-65v682q-81 -78 -215 -90z" />
<glyph unicode="&#xba;" horiz-adv-x="673" d="M51 844q0 141 79.5 227t211.5 86q126 0 203.5 -87.5t77.5 -229.5q0 -141 -78 -225.5t-207 -84.5q-130 0 -208.5 85.5t-78.5 228.5zM115 844q0 -118 60.5 -188t162.5 -70q101 0 161 69t60 185q0 118 -60.5 190t-158.5 72q-103 0 -164 -70t-61 -188z" />
<glyph unicode="&#xbb;" horiz-adv-x="614" d="M88 219v88l170 201l-170 194v91l223 -248v-74zM336 219v90l166 199l-166 188v95l219 -246v-76z" />
<glyph unicode="&#xbc;" horiz-adv-x="1699" d="M139 1139v55q81 12 132.5 45.5t93.5 99.5h55v-792h-66v682q-81 -78 -215 -90zM401 0l832 1335h63l-829 -1335h-66zM1063 199v57l393 539h60v-541h133v-55h-133v-199h-64v199h-389zM1128 254h324v448z" />
<glyph unicode="&#xbd;" horiz-adv-x="1699" d="M139 1139v55q81 12 132.5 45.5t93.5 99.5h55v-792h-66v682q-81 -78 -215 -90zM401 0l832 1335h63l-829 -1335h-66zM1081 0q9 103 60.5 165t212.5 165q115 76 160 132t45 122q0 76 -52.5 122t-140.5 46q-200 0 -203 -236h-63q1 144 69 217.5t199 73.5q115 0 184.5 -61 t69.5 -162q0 -91 -56.5 -157t-228.5 -179q-96 -63 -131.5 -99.5t-50.5 -89.5h481v-59h-555z" />
<glyph unicode="&#xbe;" horiz-adv-x="1699" d="M51 788v31h64q-2 -10 -2 -22q0 -100 61 -156.5t168 -56.5q97 0 159 52t62 134q0 172 -237 172q-19 0 -35 -2v55h43q99 0 153 39t54 111q0 69 -52.5 110t-140.5 41q-209 0 -215 -217h-61q5 134 75.5 203.5t202.5 69.5q114 0 185 -57.5t71 -149.5q0 -63 -34 -107.5 t-97 -66.5q72 -22 112 -73t40 -124q0 -109 -80 -177.5t-207 -68.5q-131 0 -210 71t-79 189zM401 0l832 1335h65l-831 -1335h-66zM1063 199v57l393 539h60v-541h133v-55h-133v-199h-64v199h-389zM1128 254h324v448z" />
<glyph unicode="&#xbf;" horiz-adv-x="933" d="M74 313q0 125 82 232q30 40 149 151q85 78 107 134t22 192h80q0 -148 -27.5 -214.5t-128.5 -158.5q-122 -115 -163 -181.5t-41 -150.5q0 -123 88.5 -200.5t226.5 -77.5q99 0 174.5 43.5t118.5 124.5q24 45 34 92t11 125h74q0 -162 -62 -266q-51 -89 -144 -138t-210 -49 q-172 0 -281.5 95.5t-109.5 246.5zM432 1178v188h84v-188h-84z" />
<glyph unicode="&#xc0;" horiz-adv-x="1210" d="M12 0l553 1366h88l543 -1366h-90l-172 438h-660l-172 -438h-90zM301 510h606l-301 764zM332 1731h102l252 -250h-74z" />
<glyph unicode="&#xc1;" horiz-adv-x="1210" d="M12 0l553 1366h88l543 -1366h-90l-172 438h-660l-172 -438h-90zM301 510h606l-301 764zM537 1481l251 250h103l-279 -250h-75z" />
<glyph unicode="&#xc2;" horiz-adv-x="1210" d="M12 0l553 1366h88l543 -1366h-90l-172 438h-660l-172 -438h-90zM301 510h606l-301 764zM309 1481l252 256h86l254 -256h-86l-213 207l-215 -207h-78z" />
<glyph unicode="&#xc3;" horiz-adv-x="1210" d="M12 0l553 1366h88l543 -1366h-90l-172 438h-660l-172 -438h-90zM301 510h606l-301 764zM332 1522q14 80 54.5 124t100.5 44q49 0 129 -48q50 -32 76 -42.5t51 -10.5q66 0 93 101h55q-34 -166 -148 -166q-57 0 -131 45q-62 39 -82.5 48t-46.5 9q-73 0 -96 -104h-55z" />
<glyph unicode="&#xc4;" horiz-adv-x="1210" d="M12 0l553 1366h88l543 -1366h-90l-172 438h-660l-172 -438h-90zM301 510h606l-301 764zM365 1513v193h84v-193h-84zM760 1513v193h84v-193h-84z" />
<glyph unicode="&#xc5;" horiz-adv-x="1210" d="M12 0l553 1366h88l543 -1366h-90l-172 438h-660l-172 -438h-90zM301 510h606l-301 764zM412 1640q0 82 56.5 138.5t139.5 56.5q78 0 134.5 -57.5t56.5 -137.5q0 -79 -56.5 -135.5t-136.5 -56.5q-79 0 -136.5 57t-57.5 135zM465 1640q0 -57 41.5 -98t99.5 -41q57 0 98 41 t41 98q0 58 -41 100t-98 42q-59 0 -100 -41t-41 -101z" />
<glyph unicode="&#xc6;" horiz-adv-x="1662" d="M-43 0l717 1366h942v-72h-725v-546h672v-72h-672v-604h729v-72h-813v487h-502l-254 -487h-94zM340 559h467v735h-86z" />
<glyph unicode="&#xc7;" horiz-adv-x="1345" d="M74 678q0 210 80 373.5t225 254.5t330 91q217 0 368.5 -119t192.5 -322h-84q-37 167 -167.5 268t-309.5 101q-243 0 -397 -179.5t-154 -463.5q0 -260 123 -426q78 -106 183 -161.5t228 -55.5q212 0 358 138.5t158 352.5h84q-20 -243 -186 -401.5t-399 -157.5l-64 -84 q53 9 70 9q63 0 104 -34t41 -85q0 -67 -56.5 -110.5t-142.5 -43.5q-77 0 -176 41l21 45q83 -35 149 -35q55 0 92 27.5t37 67.5q0 34 -30 56.5t-74 22.5q-39 0 -90 -20l-31 25l90 118q-259 20 -416 214t-157 493z" />
<glyph unicode="&#xc8;" horiz-adv-x="1101" d="M131 0v1366h920v-72h-836v-546h786v-72h-786v-604h846v-72h-930zM350 1731h103l252 -250h-74z" />
<glyph unicode="&#xc9;" horiz-adv-x="1101" d="M131 0v1366h920v-72h-836v-546h786v-72h-786v-604h846v-72h-930zM502 1481l252 250h102l-278 -250h-76z" />
<glyph unicode="&#xca;" horiz-adv-x="1101" d="M131 0v1366h920v-72h-836v-546h786v-72h-786v-604h846v-72h-930zM301 1481l252 256h86l254 -256h-86l-213 207l-215 -207h-78z" />
<glyph unicode="&#xcb;" horiz-adv-x="1101" d="M131 0v1366h920v-72h-836v-546h786v-72h-786v-604h846v-72h-930zM356 1513v193h84v-193h-84zM752 1513v193h84v-193h-84z" />
<glyph unicode="&#xcc;" horiz-adv-x="350" d="M-78 1731h103l231 -250h-74zM133 0v1366h84v-1366h-84z" />
<glyph unicode="&#xcd;" horiz-adv-x="350" d="M92 1481l232 250h102l-258 -250h-76zM133 0v1366h84v-1366h-84z" />
<glyph unicode="&#xce;" horiz-adv-x="350" d="M-94 1481l225 256h84l227 -256h-86l-186 207l-186 -207h-78zM133 0v1366h84v-1366h-84z" />
<glyph unicode="&#xcf;" horiz-adv-x="350" d="M2 1513v193h84v-193h-84zM133 0v1366h84v-1366h-84zM262 1513v193h84v-193h-84z" />
<glyph unicode="&#xd0;" horiz-adv-x="1286" d="M-33 678v72h164v616h463q143 0 245 -34t181 -107q94 -88 144 -222.5t50 -297.5q0 -358 -190 -551q-83 -82 -183.5 -118t-246.5 -36h-463v678h-164zM215 72h352q142 0 232 28.5t159 96.5q172 169 172 499q0 300 -153 459q-70 73 -162.5 106t-226.5 33h-373v-544h397v-72 h-397v-606z" />
<glyph unicode="&#xd1;" horiz-adv-x="1320" d="M131 0v1366h100l875 -1243v1243h84v-1366h-96l-879 1241v-1241h-84zM379 1522q13 79 54.5 123.5t101.5 44.5q49 0 129 -48q50 -32 76 -42.5t51 -10.5q65 0 92 101h55q-34 -166 -147 -166q-58 0 -132 45q-62 39 -82.5 48t-46.5 9q-73 0 -96 -104h-55z" />
<glyph unicode="&#xd2;" horiz-adv-x="1443" d="M74 682q0 212 81.5 374.5t230.5 251.5t343 89q186 0 333 -92t228.5 -257t81.5 -374q0 -315 -180 -510t-473 -195q-289 0 -467 197t-178 516zM158 684q0 -287 155.5 -465t407.5 -178q254 0 410.5 175.5t156.5 459.5q0 187 -71 335t-198.5 231t-289.5 83 q-256 0 -413.5 -177t-157.5 -464zM463 1731h102l252 -250h-74z" />
<glyph unicode="&#xd3;" horiz-adv-x="1443" d="M74 682q0 212 81.5 374.5t230.5 251.5t343 89q186 0 333 -92t228.5 -257t81.5 -374q0 -315 -180 -510t-473 -195q-289 0 -467 197t-178 516zM158 684q0 -287 155.5 -465t407.5 -178q254 0 410.5 175.5t156.5 459.5q0 187 -71 335t-198.5 231t-289.5 83 q-256 0 -413.5 -177t-157.5 -464zM627 1481l252 250h102l-279 -250h-75z" />
<glyph unicode="&#xd4;" horiz-adv-x="1443" d="M74 682q0 212 81.5 374.5t230.5 251.5t343 89q186 0 333 -92t228.5 -257t81.5 -374q0 -315 -180 -510t-473 -195q-289 0 -467 197t-178 516zM158 684q0 -287 155.5 -465t407.5 -178q254 0 410.5 175.5t156.5 459.5q0 187 -71 335t-198.5 231t-289.5 83 q-256 0 -413.5 -177t-157.5 -464zM426 1481l252 256h86l254 -256h-86l-213 207l-215 -207h-78z" />
<glyph unicode="&#xd5;" horiz-adv-x="1443" d="M74 682q0 212 81.5 374.5t230.5 251.5t343 89q186 0 333 -92t228.5 -257t81.5 -374q0 -315 -180 -510t-473 -195q-289 0 -467 197t-178 516zM158 684q0 -287 155.5 -465t407.5 -178q254 0 410.5 175.5t156.5 459.5q0 187 -71 335t-198.5 231t-289.5 83 q-256 0 -413.5 -177t-157.5 -464zM471 1522q13 79 54.5 123.5t101.5 44.5q49 0 129 -48q50 -32 76 -42.5t51 -10.5q65 0 92 101h55q-34 -166 -147 -166q-57 0 -131 45q-62 39 -82.5 48t-46.5 9q-74 0 -97 -104h-55z" />
<glyph unicode="&#xd6;" horiz-adv-x="1443" d="M74 682q0 212 81.5 374.5t230.5 251.5t343 89q186 0 333 -92t228.5 -257t81.5 -374q0 -315 -180 -510t-473 -195q-289 0 -467 197t-178 516zM158 684q0 -287 155.5 -465t407.5 -178q254 0 410.5 175.5t156.5 459.5q0 187 -71 335t-198.5 231t-289.5 83 q-256 0 -413.5 -177t-157.5 -464zM481 1513v193h84v-193h-84zM877 1513v193h84v-193h-84z" />
<glyph unicode="&#xd7;" d="M145 301l357 356l-357 357l48 47l356 -356l356 356l45 -47l-356 -357l356 -356l-45 -45l-356 356l-356 -356z" />
<glyph unicode="&#xd8;" horiz-adv-x="1443" d="M74 682q0 319 179 517t468 198q271 0 448 -180l129 141l43 -39l-133 -143q90 -123 126 -235.5t36 -268.5q0 -205 -82 -365t-230 -249t-337 -89q-136 0 -254.5 47.5t-198.5 133.5l-143 -156l-41 41l145 158q-84 115 -119.5 227.5t-35.5 261.5zM158 678q0 -126 33.5 -236.5 t95.5 -187.5l829 905q-159 166 -397 166q-128 0 -237 -51t-187 -148q-137 -172 -137 -448zM322 209q63 -76 171.5 -122t225.5 -46q251 0 409 175.5t158 453.5q0 140 -29.5 239t-101.5 205z" />
<glyph unicode="&#xd9;" horiz-adv-x="1280" d="M113 535v831h84v-836q0 -119 18 -193t61 -136q115 -160 373 -160q247 0 359 160q75 110 75 331v834h84v-836q0 -125 -18.5 -206t-63.5 -150q-134 -205 -436 -205q-336 0 -467 228q-38 64 -53.5 141t-15.5 197zM395 1731h103l252 -250h-74z" />
<glyph unicode="&#xda;" horiz-adv-x="1280" d="M113 535v831h84v-836q0 -119 18 -193t61 -136q115 -160 373 -160q247 0 359 160q75 110 75 331v834h84v-836q0 -125 -18.5 -206t-63.5 -150q-134 -205 -436 -205q-336 0 -467 228q-38 64 -53.5 141t-15.5 197zM559 1481l252 250h102l-278 -250h-76z" />
<glyph unicode="&#xdb;" horiz-adv-x="1280" d="M113 535v831h84v-836q0 -119 18 -193t61 -136q115 -160 373 -160q247 0 359 160q75 110 75 331v834h84v-836q0 -125 -18.5 -206t-63.5 -150q-134 -205 -436 -205q-336 0 -467 228q-38 64 -53.5 141t-15.5 197zM344 1481l252 256h86l254 -256h-86l-213 207l-215 -207h-78z " />
<glyph unicode="&#xdc;" horiz-adv-x="1280" d="M113 535v831h84v-836q0 -119 18 -193t61 -136q115 -160 373 -160q247 0 359 160q75 110 75 331v834h84v-836q0 -125 -18.5 -206t-63.5 -150q-134 -205 -436 -205q-336 0 -467 228q-38 64 -53.5 141t-15.5 197zM399 1513v193h84v-193h-84zM795 1513v193h84v-193h-84z" />
<glyph unicode="&#xdd;" horiz-adv-x="1134" d="M-25 1366h101l495 -717l496 717h96l-553 -797v-569h-84v569zM485 1481l252 250h103l-279 -250h-76z" />
<glyph unicode="&#xde;" horiz-adv-x="1153" d="M131 0v1366h84v-213h449q108 0 174 -14t118 -49q74 -50 114 -131.5t40 -182.5q0 -180 -113 -281.5t-311 -101.5h-471v-393h-84zM215 465h424q96 0 147 9.5t97 35.5q143 84 143 262q0 175 -123 256q-44 31 -98 42t-156 11h-434v-616z" />
<glyph unicode="&#xdf;" horiz-adv-x="972" d="M121 0v977q0 113 9.5 169t35.5 99q43 72 124.5 113t182.5 41q160 0 259 -93.5t99 -242.5q0 -236 -227 -295q139 -13 219 -110t80 -252q0 -206 -133 -324q-54 -47 -118 -67.5t-160 -20.5q-37 0 -82 2v65q35 -2 65 -2q174 0 258 84q92 98 92 260q0 106 -41.5 181.5 t-117.5 107.5q-90 37 -256 37v66h28q151 0 233.5 70t82.5 198q0 118 -79.5 193t-205.5 75q-270 0 -270 -305v-1026h-78z" />
<glyph unicode="&#xe0;" horiz-adv-x="944" d="M45 246q0 94 47 161t137 101q57 22 107.5 29t273.5 26q83 8 111.5 34.5t28.5 96.5q0 121 -56 174q-74 74 -223 74q-273 0 -297 -262h-76q10 160 109 245t274 85q115 0 201.5 -40.5t120.5 -109.5q17 -38 20.5 -74.5t3.5 -183.5v-440q0 -57 15 -79t55 -22q15 0 49 9v-64 q-32 -12 -67 -12q-84 0 -107 47q-11 23 -14.5 52.5t-3.5 115.5q-62 -123 -154.5 -180.5t-228.5 -57.5q-154 0 -240 73t-86 202zM121 256q0 -100 69.5 -159.5t186.5 -59.5q163 0 268 97.5t105 248.5v174q-20 -25 -71.5 -39.5t-150.5 -23.5q-128 -13 -184 -24.5t-106 -33.5 q-55 -25 -86 -72.5t-31 -107.5zM242 1407h100l231 -270h-71z" />
<glyph unicode="&#xe1;" horiz-adv-x="944" d="M45 246q0 94 47 161t137 101q57 22 107.5 29t273.5 26q83 8 111.5 34.5t28.5 96.5q0 121 -56 174q-74 74 -223 74q-273 0 -297 -262h-76q10 160 109 245t274 85q115 0 201.5 -40.5t120.5 -109.5q17 -38 20.5 -74.5t3.5 -183.5v-440q0 -57 15 -79t55 -22q15 0 49 9v-64 q-32 -12 -67 -12q-84 0 -107 47q-11 23 -14.5 52.5t-3.5 115.5q-62 -123 -154.5 -180.5t-228.5 -57.5q-154 0 -240 73t-86 202zM121 256q0 -100 69.5 -159.5t186.5 -59.5q163 0 268 97.5t105 248.5v174q-20 -25 -71.5 -39.5t-150.5 -23.5q-128 -13 -184 -24.5t-106 -33.5 q-55 -25 -86 -72.5t-31 -107.5zM397 1137l226 270h96l-252 -270h-70z" />
<glyph unicode="&#xe2;" horiz-adv-x="944" d="M45 246q0 94 47 161t137 101q57 22 107.5 29t273.5 26q83 8 111.5 34.5t28.5 96.5q0 121 -56 174q-74 74 -223 74q-273 0 -297 -262h-76q10 160 109 245t274 85q115 0 201.5 -40.5t120.5 -109.5q17 -38 20.5 -74.5t3.5 -183.5v-440q0 -57 15 -79t55 -22q15 0 49 9v-64 q-32 -12 -67 -12q-84 0 -107 47q-11 23 -14.5 52.5t-3.5 115.5q-62 -123 -154.5 -180.5t-228.5 -57.5q-154 0 -240 73t-86 202zM121 256q0 -100 69.5 -159.5t186.5 -59.5q163 0 268 97.5t105 248.5v174q-20 -25 -71.5 -39.5t-150.5 -23.5q-128 -13 -184 -24.5t-106 -33.5 q-55 -25 -86 -72.5t-31 -107.5zM213 1137l223 270h80l223 -270h-82l-184 221l-184 -221h-76z" />
<glyph unicode="&#xe3;" horiz-adv-x="944" d="M45 246q0 94 47 161t137 101q57 22 107.5 29t273.5 26q83 8 111.5 34.5t28.5 96.5q0 121 -56 174q-74 74 -223 74q-273 0 -297 -262h-76q10 160 109 245t274 85q115 0 201.5 -40.5t120.5 -109.5q17 -38 20.5 -74.5t3.5 -183.5v-440q0 -57 15 -79t55 -22q15 0 49 9v-64 q-32 -12 -67 -12q-84 0 -107 47q-11 23 -14.5 52.5t-3.5 115.5q-62 -123 -154.5 -180.5t-228.5 -57.5q-154 0 -240 73t-86 202zM121 256q0 -100 69.5 -159.5t186.5 -59.5q163 0 268 97.5t105 248.5v174q-20 -25 -71.5 -39.5t-150.5 -23.5q-128 -13 -184 -24.5t-106 -33.5 q-55 -25 -86 -72.5t-31 -107.5zM225 1182q10 78 48 123t92 45q46 0 116 -47q77 -56 113 -56q29 0 49.5 27.5t28.5 75.5h55q-7 -75 -43.5 -120.5t-87.5 -45.5q-52 0 -117 45q-59 40 -76.5 48.5t-40.5 8.5q-32 0 -53.5 -27.5t-27.5 -76.5h-56z" />
<glyph unicode="&#xe4;" horiz-adv-x="944" d="M45 246q0 94 47 161t137 101q57 22 107.5 29t273.5 26q83 8 111.5 34.5t28.5 96.5q0 121 -56 174q-74 74 -223 74q-273 0 -297 -262h-76q10 160 109 245t274 85q115 0 201.5 -40.5t120.5 -109.5q17 -38 20.5 -74.5t3.5 -183.5v-440q0 -57 15 -79t55 -22q15 0 49 9v-64 q-32 -12 -67 -12q-84 0 -107 47q-11 23 -14.5 52.5t-3.5 115.5q-62 -123 -154.5 -180.5t-228.5 -57.5q-154 0 -240 73t-86 202zM121 256q0 -100 69.5 -159.5t186.5 -59.5q163 0 268 97.5t105 248.5v174q-20 -25 -71.5 -39.5t-150.5 -23.5q-128 -13 -184 -24.5t-106 -33.5 q-55 -25 -86 -72.5t-31 -107.5zM268 1171v197h80v-197h-80zM604 1171v197h80v-197h-80z" />
<glyph unicode="&#xe5;" horiz-adv-x="944" d="M45 246q0 94 47 161t137 101q57 22 107.5 29t273.5 26q83 8 111.5 34.5t28.5 96.5q0 121 -56 174q-74 74 -223 74q-273 0 -297 -262h-76q10 160 109 245t274 85q115 0 201.5 -40.5t120.5 -109.5q17 -38 20.5 -74.5t3.5 -183.5v-440q0 -57 15 -79t55 -22q15 0 49 9v-64 q-32 -12 -67 -12q-84 0 -107 47q-11 23 -14.5 52.5t-3.5 115.5q-62 -123 -154.5 -180.5t-228.5 -57.5q-154 0 -240 73t-86 202zM121 256q0 -100 69.5 -159.5t186.5 -59.5q163 0 268 97.5t105 248.5v174q-20 -25 -71.5 -39.5t-150.5 -23.5q-128 -13 -184 -24.5t-106 -33.5 q-55 -25 -86 -72.5t-31 -107.5zM301 1284q0 74 51.5 125t124.5 51q70 0 121 -52t51 -124t-51 -123t-123 -51q-71 0 -122.5 52t-51.5 122zM350 1284q0 -51 37 -88t88 -37q52 0 89.5 37t37.5 88q0 52 -37 89.5t-88 37.5q-53 0 -90 -36.5t-37 -90.5z" />
<glyph unicode="&#xe6;" horiz-adv-x="1683" d="M41 256q0 125 86 205q44 40 115 60.5t196 31.5q83 6 127 10.5t85.5 12t58 14t30 21.5t15.5 30t2 43q0 134 -69 196t-218 62q-148 0 -223 -64.5t-86 -199.5h-76q14 163 111 247.5t274 84.5q190 0 276 -86q30 -30 44.5 -65.5t23.5 -102.5q100 254 375 254q198 0 315 -132.5 t117 -355.5v-43h-791q-2 -209 92.5 -325.5t266.5 -116.5q283 0 344 293h76q-32 -172 -143 -265.5t-281 -93.5q-296 0 -391 293q-41 -130 -159.5 -212.5t-264.5 -82.5q-149 0 -238.5 79t-89.5 208zM121 258q0 -101 70.5 -161t189.5 -60q91 0 170.5 39t132.5 108 q43 57 57.5 116t14.5 175v82q-29 -29 -67.5 -39t-145.5 -18q-191 -12 -271 -37q-151 -56 -151 -205zM827 547h715q-1 181 -97 288t-255 107q-100 0 -180.5 -45t-126.5 -127q-45 -80 -56 -223z" />
<glyph unicode="&#xe7;" horiz-adv-x="991" d="M72 485q0 240 125 383.5t335 143.5q95 0 178 -35t142 -100q36 -41 54.5 -84.5t27.5 -110.5h-78q-26 129 -108.5 195.5t-217.5 66.5q-174 0 -277 -122t-103 -328q0 -207 100.5 -331t269.5 -124q142 0 232.5 80.5t113.5 226.5h76q-17 -166 -130 -267.5t-280 -103.5h-14 l-65 -84q52 9 73 9q63 0 104.5 -33.5t41.5 -85.5q0 -69 -55 -110.5t-146 -41.5q-76 0 -176 37l20 47q77 -35 150 -35q60 0 96.5 26t36.5 67q0 36 -30.5 59t-78.5 23q-31 0 -92 -21l-28 25l94 118q-84 12 -141.5 39t-104.5 76q-67 66 -106 172.5t-39 222.5z" />
<glyph unicode="&#xe8;" horiz-adv-x="1009" d="M72 483q0 233 124 380t322 147q123 0 220 -60.5t153 -171.5q57 -111 57 -299h-796q2 -207 99 -323.5t269 -116.5q135 0 223.5 78t116.5 219h78q-31 -172 -141 -268.5t-277 -96.5q-204 0 -326 140t-122 372zM152 547h716q-3 83 -17 134.5t-46 102.5q-47 75 -122.5 116.5 t-164.5 41.5q-94 0 -174.5 -45t-126.5 -123q-29 -48 -42.5 -96.5t-22.5 -130.5zM270 1407h101l231 -270h-72z" />
<glyph unicode="&#xe9;" horiz-adv-x="1009" d="M72 483q0 233 124 380t322 147q123 0 220 -60.5t153 -171.5q57 -111 57 -299h-796q2 -207 99 -323.5t269 -116.5q135 0 223.5 78t116.5 219h78q-31 -172 -141 -268.5t-277 -96.5q-204 0 -326 140t-122 372zM152 547h716q-3 83 -17 134.5t-46 102.5q-47 75 -122.5 116.5 t-164.5 41.5q-94 0 -174.5 -45t-126.5 -123q-29 -48 -42.5 -96.5t-22.5 -130.5zM426 1137l225 270h97l-252 -270h-70z" />
<glyph unicode="&#xea;" horiz-adv-x="1009" d="M72 483q0 233 124 380t322 147q123 0 220 -60.5t153 -171.5q57 -111 57 -299h-796q2 -207 99 -323.5t269 -116.5q135 0 223.5 78t116.5 219h78q-31 -172 -141 -268.5t-277 -96.5q-204 0 -326 140t-122 372zM152 547h716q-3 83 -17 134.5t-46 102.5q-47 75 -122.5 116.5 t-164.5 41.5q-94 0 -174.5 -45t-126.5 -123q-29 -48 -42.5 -96.5t-22.5 -130.5zM256 1137l223 270h80l223 -270h-82l-184 221l-184 -221h-76z" />
<glyph unicode="&#xeb;" horiz-adv-x="1009" d="M72 483q0 233 124 380t322 147q123 0 220 -60.5t153 -171.5q57 -111 57 -299h-796q2 -207 99 -323.5t269 -116.5q135 0 223.5 78t116.5 219h78q-31 -172 -141 -268.5t-277 -96.5q-204 0 -326 140t-122 372zM152 547h716q-3 83 -17 134.5t-46 102.5q-47 75 -122.5 116.5 t-164.5 41.5q-94 0 -174.5 -45t-126.5 -123q-29 -48 -42.5 -96.5t-22.5 -130.5zM311 1171v197h80v-197h-80zM647 1171v197h80v-197h-80z" />
<glyph unicode="&#xec;" horiz-adv-x="321" d="M-82 1407h100l211 -270h-71zM121 0v981h78v-981h-78z" />
<glyph unicode="&#xed;" horiz-adv-x="321" d="M94 1137l205 270h96l-231 -270h-70zM123 0v981h78v-981h-78z" />
<glyph unicode="&#xee;" horiz-adv-x="321" d="M-63 1137l182 270h80l182 -270h-82l-143 221l-144 -221h-75zM121 0v981h78v-981h-78z" />
<glyph unicode="&#xef;" horiz-adv-x="321" d="M6 1171v197h80v-197h-80zM121 0v981h78v-981h-78zM231 1171v197h80v-197h-80z" />
<glyph unicode="&#xf0;" horiz-adv-x="1050" d="M72 492q0 232 126 375t330 143q80 0 183 -33l-103 178l-174 -74l-24 54l165 73l-94 164l58 29l102 -164l182 78l25 -55l-176 -76l172 -271q77 -123 107 -217t30 -211q0 -236 -122 -375t-329 -139q-209 0 -333.5 142t-124.5 379zM152 489q0 -205 103 -327.5t275 -122.5 q169 0 271 122t102 324q0 204 -102 330.5t-266 126.5q-175 0 -279 -123.5t-104 -329.5z" />
<glyph unicode="&#xf1;" horiz-adv-x="1019" d="M121 0v981h78v-213q102 242 360 242q89 0 162 -32.5t119 -92.5q36 -47 49.5 -102t13.5 -156v-627h-78v608q0 136 -30 197q-31 63 -98.5 100t-153.5 37q-94 0 -171 -42.5t-118 -117.5q-29 -52 -41 -113.5t-12 -158.5v-510h-80zM256 1182q10 78 47.5 123t91.5 45 q47 0 117 -47q77 -56 113 -56q29 0 49 27.5t28 75.5h56q-7 -75 -43.5 -120.5t-87.5 -45.5q-52 0 -117 45q-59 40 -76.5 48.5t-40.5 8.5q-32 0 -54 -27.5t-28 -76.5h-55z" />
<glyph unicode="&#xf2;" horiz-adv-x="1050" d="M72 489q0 236 126 378.5t337 142.5q201 0 323.5 -144.5t122.5 -380.5q0 -235 -123 -374.5t-332 -139.5q-206 0 -330 141.5t-124 376.5zM150 489q0 -205 103 -327.5t275 -122.5q170 0 272.5 122t102.5 324q0 204 -102.5 330.5t-268.5 126.5q-173 0 -277.5 -124 t-104.5 -329zM285 1407h100l231 -270h-71z" />
<glyph unicode="&#xf3;" horiz-adv-x="1050" d="M72 489q0 236 126 378.5t337 142.5q201 0 323.5 -144.5t122.5 -380.5q0 -235 -123 -374.5t-332 -139.5q-206 0 -330 141.5t-124 376.5zM150 489q0 -205 103 -327.5t275 -122.5q170 0 272.5 122t102.5 324q0 204 -102.5 330.5t-268.5 126.5q-173 0 -277.5 -124 t-104.5 -329zM446 1137l226 270h96l-252 -270h-70z" />
<glyph unicode="&#xf4;" horiz-adv-x="1050" d="M72 489q0 236 126 378.5t337 142.5q201 0 323.5 -144.5t122.5 -380.5q0 -235 -123 -374.5t-332 -139.5q-206 0 -330 141.5t-124 376.5zM150 489q0 -205 103 -327.5t275 -122.5q170 0 272.5 122t102.5 324q0 204 -102.5 330.5t-268.5 126.5q-173 0 -277.5 -124 t-104.5 -329zM262 1137l223 270h80l223 -270h-81l-185 221l-184 -221h-76z" />
<glyph unicode="&#xf5;" horiz-adv-x="1050" d="M72 489q0 236 126 378.5t337 142.5q201 0 323.5 -144.5t122.5 -380.5q0 -235 -123 -374.5t-332 -139.5q-206 0 -330 141.5t-124 376.5zM150 489q0 -205 103 -327.5t275 -122.5q170 0 272.5 122t102.5 324q0 204 -102.5 330.5t-268.5 126.5q-173 0 -277.5 -124 t-104.5 -329zM289 1182q10 78 47.5 123t91.5 45q47 0 117 -47q77 -56 112 -56q29 0 49.5 27.5t28.5 75.5h56q-7 -75 -44 -120.5t-88 -45.5t-116 45q-59 40 -76.5 48.5t-40.5 8.5q-32 0 -54 -27.5t-28 -76.5h-55z" />
<glyph unicode="&#xf6;" horiz-adv-x="1050" d="M72 489q0 236 126 378.5t337 142.5q201 0 323.5 -144.5t122.5 -380.5q0 -235 -123 -374.5t-332 -139.5q-206 0 -330 141.5t-124 376.5zM150 489q0 -205 103 -327.5t275 -122.5q170 0 272.5 122t102.5 324q0 204 -102.5 330.5t-268.5 126.5q-173 0 -277.5 -124 t-104.5 -329zM317 1171v197h80v-197h-80zM653 1171v197h80v-197h-80z" />
<glyph unicode="&#xf7;" d="M84 627v65h926v-65h-926zM475 371q0 29 21.5 50t52.5 21q29 0 50.5 -22t21.5 -51t-21.5 -50.5t-52.5 -21.5q-29 0 -50.5 21.5t-21.5 52.5zM477 946q0 29 21.5 50.5t52.5 21.5q28 0 49 -21.5t21 -50.5t-21.5 -50.5t-50.5 -21.5t-50.5 21.5t-21.5 50.5z" />
<glyph unicode="&#xf8;" horiz-adv-x="1087" d="M76 37l112 117q-100 138 -100 338q0 232 126.5 375t330.5 143q100 0 177 -33t146 -105l101 103l35 -37l-103 -109q52 -70 75 -150t23 -187q0 -239 -121 -380t-327 -141q-203 0 -334 140l-104 -111zM166 487q0 -152 74 -280l579 612q-66 66 -129 94.5t-145 28.5 q-172 0 -275.5 -124.5t-103.5 -330.5zM270 164q38 -58 113.5 -91.5t165.5 -33.5q172 0 272.5 119.5t100.5 324.5q0 171 -74 293z" />
<glyph unicode="&#xf9;" horiz-adv-x="1013" d="M119 348v633h78v-586q0 -90 6 -134t26 -83q29 -65 97.5 -103t154.5 -38q152 0 243 111.5t91 300.5v532h78v-981h-76v207q-102 -236 -352 -236q-167 0 -256.5 97t-89.5 280zM266 1407h101l231 -270h-72z" />
<glyph unicode="&#xfa;" horiz-adv-x="1013" d="M119 348v633h78v-586q0 -90 6 -134t26 -83q29 -65 97.5 -103t154.5 -38q152 0 243 111.5t91 300.5v532h78v-981h-76v207q-102 -236 -352 -236q-167 0 -256.5 97t-89.5 280zM428 1137l225 270h97l-252 -270h-70z" />
<glyph unicode="&#xfb;" horiz-adv-x="1013" d="M119 348v633h78v-586q0 -90 6 -134t26 -83q29 -65 97.5 -103t154.5 -38q152 0 243 111.5t91 300.5v532h78v-981h-76v207q-102 -236 -352 -236q-167 0 -256.5 97t-89.5 280zM244 1137l223 270h80l223 -270h-82l-184 221l-185 -221h-75z" />
<glyph unicode="&#xfc;" horiz-adv-x="1013" d="M119 348v633h78v-586q0 -90 6 -134t26 -83q29 -65 97.5 -103t154.5 -38q152 0 243 111.5t91 300.5v532h78v-981h-76v207q-102 -236 -352 -236q-167 0 -256.5 97t-89.5 280zM299 1171v197h80v-197h-80zM635 1171v197h80v-197h-80z" />
<glyph unicode="&#xfd;" horiz-adv-x="856" d="M-10 981h88l368 -875l336 875h82l-422 -1083q-60 -156 -108 -199q-60 -54 -162 -51l-45 2h-29v69q13 -1 27 -2t22 -1.5t15 -0.5q63 0 101 23t67 80q6 12 43 98q3 10 22 53q13 29 13 31q-2 4 -2 8zM360 1137l226 270h96l-252 -270h-70z" />
<glyph unicode="&#xfe;" horiz-adv-x="1073" d="M121 -354v1720h80v-616q95 260 362 260q199 0 318.5 -143t119.5 -380q0 -233 -119.5 -374.5t-316.5 -141.5q-135 0 -230.5 66.5t-133.5 187.5v-579h-80zM199 483q0 -204 98.5 -324t265.5 -120q163 0 262 123t99 325q0 207 -98.5 331t-262.5 124q-173 0 -268.5 -120.5 t-95.5 -338.5z" />
<glyph unicode="&#xff;" horiz-adv-x="856" d="M-10 981h88l368 -875l336 875h82l-422 -1083q-60 -156 -108 -199q-60 -54 -162 -51l-45 2h-29v69q13 -1 27 -2t22 -1.5t15 -0.5q63 0 101 23t67 80q6 12 43 98q3 10 22 53q13 29 13 31q-2 4 -2 8zM219 1171v197h80v-197h-80zM555 1171v197h80v-197h-80z" />
<glyph unicode="&#x152;" horiz-adv-x="2054" d="M72 676q0 210 82.5 374.5t231 255.5t337.5 91q233 0 395 -152v121h891v-72h-811v-546h729v-72h-729v-604h815v-72h-895v137q-168 -168 -407 -168q-184 0 -330 90.5t-227.5 251.5t-81.5 365zM156 678q0 -186 70.5 -331.5t198 -225.5t290.5 -80q190 0 323 109 q34 28 55 56.5t21 47.5v868q0 46 -100 117q-127 86 -285 86q-256 0 -414.5 -179t-158.5 -468z" />
<glyph unicode="&#x153;" horiz-adv-x="1722" d="M72 485q0 238 116.5 381.5t309.5 143.5q185 0 290 -127q27 -32 44 -66.5t36 -97.5q47 149 139.5 220t237.5 71q112 0 203 -49t141 -136q74 -131 74 -346h-760v-45q0 -178 94 -286.5t248 -108.5q257 0 334 285h76q-43 -173 -149 -263t-269 -90q-298 0 -371 295 q-40 -146 -133.5 -220.5t-236.5 -74.5q-195 0 -309.5 139.5t-114.5 374.5zM150 481q0 -206 92.5 -324t255.5 -118q160 0 248 119t88 334q0 214 -87 332t-245 118q-167 0 -259.5 -120.5t-92.5 -340.5zM901 547h684q-5 93 -18.5 149t-44.5 101q-46 69 -118.5 107t-160.5 38 q-94 0 -169 -42.5t-118 -119.5q-46 -81 -55 -233z" />
<glyph unicode="&#x178;" horiz-adv-x="1134" d="M-25 1366h101l495 -717l496 717h96l-553 -797v-569h-84v569zM328 1513v193h84v-193h-84zM723 1513v193h84v-193h-84z" />
<glyph unicode="&#x2c6;" horiz-adv-x="1024" d="M248 1137l223 270h80l223 -270h-82l-184 221l-184 -221h-76z" />
<glyph unicode="&#x2dc;" horiz-adv-x="1024" d="M262 1182q10 78 47.5 123t91.5 45q47 0 117 -47q77 -56 113 -56q29 0 49.5 27.5t28.5 75.5h55q-7 -75 -43.5 -120.5t-87.5 -45.5q-52 0 -117 45q-59 40 -76.5 48.5t-40.5 8.5q-32 0 -54 -27.5t-28 -76.5h-55z" />
<glyph unicode="&#x2000;" horiz-adv-x="917" />
<glyph unicode="&#x2001;" horiz-adv-x="1835" />
<glyph unicode="&#x2002;" horiz-adv-x="917" />
<glyph unicode="&#x2003;" horiz-adv-x="1835" />
<glyph unicode="&#x2004;" horiz-adv-x="611" />
<glyph unicode="&#x2005;" horiz-adv-x="458" />
<glyph unicode="&#x2006;" horiz-adv-x="305" />
<glyph unicode="&#x2007;" horiz-adv-x="305" />
<glyph unicode="&#x2008;" horiz-adv-x="229" />
<glyph unicode="&#x2009;" horiz-adv-x="367" />
<glyph unicode="&#x200a;" horiz-adv-x="101" />
<glyph unicode="&#x2010;" horiz-adv-x="436" d="M0 471v70h436v-70h-436z" />
<glyph unicode="&#x2011;" horiz-adv-x="436" d="M0 471v70h436v-70h-436z" />
<glyph unicode="&#x2012;" horiz-adv-x="436" d="M0 471v70h436v-70h-436z" />
<glyph unicode="&#x2013;" d="M117 471v70h860v-70h-860z" />
<glyph unicode="&#x2014;" horiz-adv-x="1310" d="M0 487v70h1311v-70h-1311z" />
<glyph unicode="&#x2018;" horiz-adv-x="333" d="M119 944v164q0 121 28 182.5t97 95.5v-65q-69 -43 -66 -180h37v-197h-96z" />
<glyph unicode="&#x2019;" horiz-adv-x="333" d="M90 924v65q69 40 66 180h-37v197h96v-164q0 -121 -28 -182.5t-97 -95.5z" />
<glyph unicode="&#x201a;" horiz-adv-x="333" d="M90 -180q69 40 66 180h-37v195h96v-162q0 -121 -28 -183t-97 -96v66z" />
<glyph unicode="&#x201c;" horiz-adv-x="571" d="M119 944v164q0 121 28 182.5t97 95.5v-65q-69 -43 -66 -180h37v-197h-96zM356 944v164q0 121 28 182.5t97 95.5v-65q-68 -43 -65 -180h37v-197h-97z" />
<glyph unicode="&#x201d;" horiz-adv-x="571" d="M90 924v65q69 40 66 180h-37v197h96v-164q0 -121 -28 -182.5t-97 -95.5zM328 924v65q68 40 65 180h-37v197h97v-164q0 -121 -28 -182.5t-97 -95.5z" />
<glyph unicode="&#x201e;" horiz-adv-x="571" d="M90 -180q69 40 66 180h-37v195h96v-162q0 -121 -28 -183t-97 -96v66zM328 -180q68 40 65 180h-37v195h97v-162q0 -121 -28 -183t-97 -96v66z" />
<glyph unicode="&#x2022;" horiz-adv-x="1366" d="M401 692q0 120 83.5 202.5t205.5 82.5q114 0 196.5 -83.5t82.5 -199.5q0 -118 -83 -201t-200 -83t-201 83t-84 199z" />
<glyph unicode="&#x2026;" horiz-adv-x="884" d="M100 0v195h97v-195h-97zM395 0v195h97v-195h-97zM690 0v195h96v-195h-96z" />
<glyph unicode="&#x202f;" horiz-adv-x="367" />
<glyph unicode="&#x2039;" horiz-adv-x="370" d="M59 465v74l224 254v-91l-170 -200l170 -193v-90z" />
<glyph unicode="&#x203a;" horiz-adv-x="370" d="M88 219v88l170 201l-170 194v91l223 -248v-74z" />
<glyph unicode="&#x205f;" horiz-adv-x="458" />
<glyph unicode="&#x2122;" horiz-adv-x="1589" d="M-6 1311v55h627v-55h-283v-723h-64v723h-280zM692 588v778h80l311 -692l310 692h80v-778h-64v665l-297 -665h-57l-299 663v-663h-64z" />
<glyph unicode="&#x25fc;" horiz-adv-x="983" d="M0 0v983h983v-983h-983z" />
</font>
</defs>
</svg>
